<?xml version="1.0" encoding="utf-8" ?>
<svg baseProfile="full" height="200mm" version="1.1" viewBox="0,0,200,200" width="200mm" xmlns="http://www.w3.org/2000/svg" xmlns:ev="http://www.w3.org/2001/xml-events" xmlns:xlink="http://www.w3.org/1999/xlink"><defs /><rect fill="#1a1a1a" height="200" width="200" x="0" y="0" /><text alignment-baseline="middle" fill="#e1ed5e" style="dominant-baseline: central; font-size:9.0px; font-family:Arial;" text-anchor="middle" x="100.0" y="100.0">2015</text><line stroke="#e1ed5e" stroke-width="0.3" x1="100.0" x2="100.0" y1="15.0" y2="10.0" /><path d="M 100.0 14.0 a86.0,86.0 0 0,1 42.46469731375804,11.215312516191453" fill="none" id="id13" stroke="none" /><text fill="#e1ed5e" style="font-size:6.75px; font-family:Arial;" text-anchor="middle"><textPath startOffset="22.20632615414155" xlink:href="#id13">January</textPath></text><line stroke="#e1ed5e" stroke-width="0.3" x1="143.23703022742887" x2="145.7803849466894" y1="26.81831364943548" y2="22.513508569990506" /><path d="M 143.74570117128098 25.957352633546492 a86.0,86.0 0 0,1 28.547481713284135,27.462654790039103" fill="none" id="id14" stroke="none" /><text fill="#e1ed5e" style="font-size:6.75px; font-family:Arial;" text-anchor="middle"><textPath startOffset="19.985693538727396" xlink:href="#id14">February</textPath></text><line stroke="#e1ed5e" stroke-width="0.3" x1="172.23445277983987" x2="176.4835382374775" y1="55.19839476539836" y2="52.563006222186495" /><path d="M 173.08426987136738 54.67131705675599 a86.0,86.0 0 0,1 12.851231095245387,41.99856678651699" fill="none" id="id15" stroke="none" /><text fill="#e1ed5e" style="font-size:6.75px; font-family:Arial;" text-anchor="middle"><textPath startOffset="22.20632615414155" xlink:href="#id15">March</textPath></text><line stroke="#e1ed5e" stroke-width="0.3" x1="184.98032266829074" x2="189.97916517819016" y1="98.17113171792111" y2="98.06355123074" /><path d="M 185.9800911702706 98.14961562048488 a86.0,86.0 0 0,1 -9.607161424134198,41.387399972396054" fill="none" id="id16" stroke="none" /><text fill="#e1ed5e" style="font-size:6.75px; font-family:Arial;" text-anchor="middle"><textPath startOffset="21.466115282336823" xlink:href="#id16">April</textPath></text><line stroke="#e1ed5e" stroke-width="0.3" x1="174.80103733775053" x2="179.2010983576182" y1="140.37084112569926" y2="142.7455964860345" /><path d="M 175.68104954172406 140.8457921977663 a86.0,86.0 0 0,1 -30.038265399797805,32.042727171017184" fill="none" id="id17" stroke="none" /><text fill="#e1ed5e" style="font-size:6.75px; font-family:Arial;" text-anchor="middle"><textPath startOffset="22.206326154141568" xlink:href="#id17">May</textPath></text><line stroke="#e1ed5e" stroke-width="0.3" x1="143.8653032363475" x2="146.44561519142675" y1="172.8068346515853" y2="177.08958963109032" /><path d="M 144.38136562736335 173.6633856474863 a86.0,86.0 0 0,1 -40.68145358897372,12.25698825130547" fill="none" id="id18" stroke="none" /><text fill="#e1ed5e" style="font-size:6.75px; font-family:Arial;" text-anchor="middle"><textPath startOffset="21.466115282336833" xlink:href="#id18">June</textPath></text><line stroke="#e1ed5e" stroke-width="0.3" x1="102.19456741930631" x2="102.32365962044197" y1="184.97166512339345" y2="189.96999836594603" /><path d="M 102.22038585953345 185.97133177190398 a86.0,86.0 0 0,1 -42.740103519485714,-10.115201625700543" fill="none" id="id19" stroke="none" /><text fill="#e1ed5e" style="font-size:6.75px; font-family:Arial;" text-anchor="middle"><textPath startOffset="22.20632615414155" xlink:href="#id19">July</textPath></text><line stroke="#e1ed5e" stroke-width="0.3" x1="58.666819895761336" x2="56.23545636021788" y1="174.27360380694188" y2="178.64263932499728" /><path d="M 58.180547188652646 175.14741091055294 a86.0,86.0 0 0,1 -31.652253787137756,-30.449443065178592" fill="none" id="id20" stroke="none" /><text fill="#e1ed5e" style="font-size:6.75px; font-family:Arial;" text-anchor="middle"><textPath startOffset="22.20632615414155" xlink:href="#id20">August</textPath></text><line stroke="#e1ed5e" stroke-width="0.3" x1="26.63291911575756" x2="22.317208475507996" y1="142.92168965132927" y2="145.44649492493687" /><path d="M 25.769776987707644 143.4266507060508 a86.0,86.0 0 0,1 -11.730757126820373,-40.83630448921669" fill="none" id="id21" stroke="none" /><text fill="#e1ed5e" style="font-size:6.75px; font-family:Arial;" text-anchor="middle"><textPath startOffset="21.46611528233685" xlink:href="#id21">September</textPath></text><line stroke="#e1ed5e" stroke-width="0.3" x1="15.007084014347285" x2="10.007500721073583" y1="101.09737516637583" y2="101.16192664675087" /><path d="M 14.007167355692545 101.11028546245083 a86.0,86.0 0 0,1 10.666146001902534,-42.60595125391555" fill="none" id="id22" stroke="none" /><text fill="#e1ed5e" style="font-size:6.75px; font-family:Arial;" text-anchor="middle"><textPath startOffset="22.20632615414155" xlink:href="#id22">October</textPath></text><path d="M 80.803312248108 91.48605970444005 l -50.425039507220916 -22.3640547429031 a76.16190310212617,76.16190310212617 0 0,0 0.5418291361485414,-1.1938486793296543 l 50.032608054109026 23.228725431074825" fill="#40ffc3" stroke="none" /><path d="M 80.95270993114464 91.15688171328213 l -36.91615769531901 -17.139128349004785 a61.70076681770652,61.70076681770652 0 0,0 0.45553325375076875,-0.9594692078627166 l 36.61566624772649 17.772039972508036" fill="#73ff27" stroke="none" /><path d="M 81.10775173730289 90.83032412892265 l -35.60377750029958 -17.280902459255255 a60.57598466364587,60.57598466364587 0 0,0 0.46337739960487323,-0.9341405619312226 l 35.30104008774129 17.89120260968544" fill="#84ff25" stroke="none" /><line stroke="#e1ed5e" stroke-width="0.3" x1="26.266209847984243" x2="21.928928074336255" y1="57.711370442889674" y2="55.22380399835377" /><path d="M 25.398753493254645 57.213857153982495 a86.0,86.0 0 0,1 29.58750427330803,-30.492523968695096" fill="none" id="id23" stroke="none" /><text fill="#e1ed5e" style="font-size:6.75px; font-family:Arial;" text-anchor="middle"><textPath startOffset="21.46611528233685" xlink:href="#id23">November</textPath></text><path d="M 82.54541684631803 88.32363383020206 l -36.530513958272344 -24.437344254636358 a64.95067967933078,64.95067967933078 0 0,0 0.629636634328488,-0.9239140677971298 l 36.10445285827512 25.062536345703904" fill="#46ff2d" stroke="none" /><path d="M 82.7489923806493 88.02491185347247 l -36.20767429343214 -25.134189307194102 a65.07633321714883,65.07633321714883 0 0,0 0.6466956900884117,-0.9147051914895549 l 35.76966598353985 25.753720999015446" fill="#44ff2d" stroke="none" /><path d="M 82.95767976084542 87.72973835380427 l -14.475180911855418 -10.421952801732767 a38.83670268386197,38.83670268386197 0 0,0 0.3952788271539724,-0.5391598760147424 l 14.293639472187811 10.66957512141901" fill="#ff0000" stroke="none" /><path d="M 83.39014120810768 87.1503855733568 l -33.758134059088235 -26.11575521845819 a63.68072499128616,63.68072499128616 0 0,0 0.6781873471008895,-0.8612290598147386 l 33.30359263139338 26.692976672225974" fill="#57ff2a" stroke="none" /><path d="M 83.6137871275137 86.86637796730984 l -14.493811850614401 -11.616854250594884 a39.574764726385496,39.574764726385496 0 0,0 0.43061397217624175,-0.5278818135188691 l 14.291699386361767 11.864620233721835" fill="#ff0f01" stroke="none" /><path d="M 84.80347519578584 85.50635884689758 l -26.354238118984856 -25.135277642823652 a57.41878703380969,57.41878703380969 0 0,0 0.6883028872014249,-0.7093566287929784 l 25.917670968080312 25.585198467166755" fill="#b3ff20" stroke="none" /><path d="M 85.05521093208273 85.24692304244772 l -43.984422478673935 -43.420189258770286 a82.8056814220983,82.8056814220983 0 0,0 1.0100881487186757,-1.0057505092031211 l 43.230498529787944 44.17087561862352" fill="#4be1ff" stroke="none" /><path d="M 85.57189188830299 84.74124197986013 l -25.287325533280992 -26.743158444732178 a57.80550714534681,57.80550714534681 0 0,0 0.7288782173965689,-0.6774128670523355 l 24.823239432089565 27.17447589785916" fill="#adff20" stroke="none" /><path d="M 86.65592168130627 83.78471172551755 l -31.067966240072465 -37.75277817269128 a69.8926455210875,69.8926455210875 0 0,0 0.9355516724435136,-0.7564843891915429 l 30.413511169064453 38.281968659146955" fill="#35ff65" stroke="none" /><path d="M 87.22198572758235 83.33499621200491 l -38.334042817252964 -49.99501136398527 a84.0,84.0 0 0,0 1.1550153849664402,-0.8699336419765826 l 37.467781278528136 50.64746159546771" fill="#4dd2ff" stroke="none" /><line stroke="#e1ed5e" stroke-width="0.3" x1="56.762969772571076" x2="54.21961505331055" y1="26.818313649435495" y2="22.513508569990535" /><path d="M 56.25429882871897 25.957352633546506 a86.0,86.0 0 0,1 42.265352541879196,-11.944610805530505" fill="none" id="id24" stroke="none" /><text fill="#e1ed5e" style="font-size:6.75px; font-family:Arial;" text-anchor="middle"><textPath startOffset="22.20632615414155" xlink:href="#id24">December</textPath></text></svg>