<?xml version="1.0" encoding="utf-8" ?>
<svg baseProfile="full" height="200mm" version="1.1" viewBox="0,0,200,200" width="200mm" xmlns="http://www.w3.org/2000/svg" xmlns:ev="http://www.w3.org/2001/xml-events" xmlns:xlink="http://www.w3.org/1999/xlink"><defs /><rect fill="#1a1a1a" height="200" width="200" x="0" y="0" /><text alignment-baseline="middle" fill="#e1ed5e" style="dominant-baseline: central; font-size:9.0px; font-family:Arial;" text-anchor="middle" x="100.0" y="100.0">2017</text><line stroke="#e1ed5e" stroke-width="0.3" x1="100.0" x2="100.0" y1="15.0" y2="10.0" /><path d="M 100.0 14.0 a86.0,86.0 0 0,1 42.46469731375804,11.215312516191453" fill="none" id="id37" stroke="none" /><text fill="#e1ed5e" style="font-size:6.75px; font-family:Arial;" text-anchor="middle"><textPath startOffset="22.20632615414155" xlink:href="#id37">January</textPath></text><path d="M 100.0 79.0 l 0.0 -31.660306103108425 a52.660306103108425,52.660306103108425 0 0,0 0.9064606042280802,0.007802192600417209 l -0.5449801249555518 31.655615287116568" fill="#7eff26" stroke="none" /><path d="M 102.52436894288641 79.15227682838746 l 2.1749715925181734 -17.962194391083724 a39.093394617134194,39.093394617134194 0 0,0 0.6673526753749172,0.08664153041369227 l -2.483838996400937 17.922094537505895" fill="#ffe215" stroke="none" /><path d="M 103.59715602781102 79.31037775812273 l 3.1000670408082485 -17.830534873364254 a39.098021702047006,39.098021702047006 0 0,0 0.6620689177367894,0.12098886287837635 l -3.4065310796479387 17.774530529135138" fill="#ffe215" stroke="none" /><path d="M 104.66035177308747 79.52364482259891 l 7.7868330279857165 -34.213288299162116 a56.08822971948446,56.08822971948446 0 0,0 0.9395481264532979,0.22236068594900482 l -8.374604841401538 34.07418170107224" fill="#5aff2a" stroke="none" /><path d="M 109.08828744355905 81.06846463323043 l 0.6646326964564481 -1.38447617078771 a22.535744408642913,22.535744408642913 0 0,0 0.34826174190064907,0.17089052426650933 l -0.688365705367529 1.3728304863863687" fill="#ff0000" stroke="none" /><path d="M 110.36928655335952 81.73862282372117 l 8.928548281179436 -15.724089305489233 a39.082200056861254,39.082200056861254 0 0,0 0.5821447562014254,0.3372158176358871 l -9.19788976984619 15.568069330463295" fill="#ffe215" stroke="none" /><line stroke="#e1ed5e" stroke-width="0.3" x1="143.23703022742887" x2="145.7803849466894" y1="26.81831364943548" y2="22.513508569990506" /><path d="M 143.74570117128098 25.957352633546492 a86.0,86.0 0 0,1 28.547481713284135,27.462654790039103" fill="none" id="id38" stroke="none" /><text fill="#e1ed5e" style="font-size:6.75px; font-family:Arial;" text-anchor="middle"><textPath startOffset="19.985693538727396" xlink:href="#id38">February</textPath></text><path d="M 111.90073688211348 82.69761687909136 l 1.5791427467696386 -2.2959026048444136 a23.78654994313874,23.78654994313874 0 0,0 0.33535508261436475,0.2349376665028391 l -1.6184289689676543 2.2683800955776388" fill="#ff1202" stroke="none" /><path d="M 115.4437574822437 85.77008943001954 l 13.311459313566582 -12.26520656037048 a39.10055913570886,39.10055913570886 0 0,0 0.4518094918927867,0.4988993255531124 l -13.520612446075404 12.034254447547818" fill="#ffe215" stroke="none" /><path d="M 116.38621287248628 86.86637796730983 l 14.08256167027914 -11.287235413623243 a39.04772081122062,39.04772081122062 0 0,0 0.41585063912074477,0.5280880813897567 l -14.27476638999385 11.043154938280447" fill="#ffe115" stroke="none" /><path d="M 117.2510076193507 88.02491185347247 l 14.856555663845437 -10.312937513793653 a39.08518527293404,39.08518527293404 0 0,0 0.3788946417321,0.5559811335987265 l -15.03187477124627 10.055678356924519" fill="#ffe215" stroke="none" /><line stroke="#e1ed5e" stroke-width="0.3" x1="172.23445277983987" x2="176.4835382374775" y1="55.19839476539836" y2="52.563006222186495" /><path d="M 173.08426987136738 54.67131705675599 a86.0,86.0 0 0,1 12.851231095245387,41.99856678651699" fill="none" id="id39" stroke="none" /><text fill="#e1ed5e" style="font-size:6.75px; font-family:Arial;" text-anchor="middle"><textPath startOffset="22.20632615414155" xlink:href="#id39">March</textPath></text><path d="M 117.84615892207809 88.93136811851018 l 12.877114819065898 -7.986707069586082 a36.152807524639876,36.152807524639876 0 0,0 0.32345435149898855,0.5316739072690626 l -13.01268496885111 7.763865389109938" fill="#ffbd11" stroke="none" /><path d="M 119.04729006885535 91.15688171328212 l 16.375488856249568 -7.602676519082792 a39.05428828658074,39.05428828658074 0 0,0 0.2778390563171743,0.6121815316323622 l -16.50393022953009 7.3196729786083665" fill="#ffe215" stroke="none" /><path d="M 119.97218684219823 93.5106431181261 l 17.208976496204553 -5.591535415626009 a39.0945887035633,39.0945887035633 0 0,0 0.20244391123094965,0.6418025213895735 l -17.30267589120371 5.294482727810016" fill="#ffe215" stroke="none" /><path d="M 120.94382443527127 98.46500227214037 l 18.032341070175686 -1.3216116596209961 a39.08070744882487,39.08070744882487 0 0,0 0.04339709527790154,0.6713338559401171 l -18.052418756458003 1.0110187394278438" fill="#ffe215" stroke="none" /><line stroke="#e1ed5e" stroke-width="0.3" x1="184.98032266829074" x2="189.97916517819016" y1="98.17113171792111" y2="98.06355123074" /><path d="M 185.9800911702706 98.14961562048488 a86.0,86.0 0 0,1 -9.607161424134198,41.387399972396054" fill="none" id="id40" stroke="none" /><text fill="#e1ed5e" style="font-size:6.75px; font-family:Arial;" text-anchor="middle"><textPath startOffset="21.466115282336823" xlink:href="#id40">April</textPath></text><path d="M 120.99824983174949 100.27111621757518 l 31.809751573566135 0.41070753980609326 a52.812402862016675,52.812402862016675 0 0,0 -0.01956055042451898,0.9089019165203863 l -31.797968960456608 -0.9581992721165944" fill="#7cff26" stroke="none" /><path d="M 120.95626037817324 101.35467743843564 l 18.05898588493044 1.167388660852071 a39.09667835481426,39.09667835481426 0 0,0 -0.04919375175846159,0.6712096581264665 l -18.036215574507644 -1.4780714554753076" fill="#ffe215" stroke="none" /><path d="M 120.8583938346157 102.4346265915055 l 17.978504337112696 2.098481075853084 a39.10055913570886,39.10055913570886 0 0,0 -0.08378410231958397,0.6678417314006939 l -17.939718725546264 -2.407640561541173" fill="#ffe215" stroke="none" /><path d="M 120.70491114924044 103.5080841355445 l 14.108997914692438 2.3905222966763957 a35.3100810272934,35.3100810272934 0 0,0 -0.10669286964158478,0.5983902737002124 l -14.065758602711664 -2.6330313211098266" fill="#ffb210" stroke="none" /><path d="M 120.41448212921028 104.9243191809786 l 61.24344638763086 14.772957542935806 a84.0,84.0 0 0,0 -0.35115474281975656,1.4026886424104164 l -60.980080330516046 -15.82497402474362" fill="#4dd2ff" stroke="none" /><path d="M 119.79798401119884 107.00284435728193 l 4.68785566254557 1.6581649705161818 a25.972474412433662,25.972474412433662 0 0,0 -0.15271287959990887,0.4202002570869632 l -4.658618521940435 -1.7386130246092761" fill="#ff3204" stroke="none" /><path d="M 119.26925614724726 108.34839909993367 l 7.131332200040403 3.089647408556053 a28.771860784685366,28.771860784685366 0 0,0 -0.20079870032696737,0.45274805992857536 l -7.077092414982164 -3.2119438049773157" fill="#ff5908" stroke="none" /><path d="M 118.64920377521936 109.65438752849418 l 10.616101665731506 5.495782059020321 a32.95429776345716,32.95429776345716 0 0,0 -0.26512123573076685,0.5015094644562617 l -10.519927921775848 -5.677706538562717" fill="#ff920d" stroke="none" /><line stroke="#e1ed5e" stroke-width="0.3" x1="174.80103733775053" x2="179.2010983576182" y1="140.37084112569926" y2="142.7455964860345" /><path d="M 175.68104954172406 140.8457921977663 a86.0,86.0 0 0,1 -30.038265399797805,32.042727171017184" fill="none" id="id41" stroke="none" /><text fill="#e1ed5e" style="font-size:6.75px; font-family:Arial;" text-anchor="middle"><textPath startOffset="22.206326154141568" xlink:href="#id41">May</textPath></text><path d="M 117.14729908036423 112.12312394758627 l 6.3277384923718065 4.473705024412895 a28.7494716641395,28.7494716641395 0 0,0 -0.2891652082852985,0.40162518320445106 l -6.249793491710905 -4.581963813068477" fill="#ff5908" stroke="none" /><path d="M 114.29624159901734 115.38237550388516 l 2.869443469351669 3.0874448103739565 a25.214975833965127,25.214975833965127 0 0,0 -0.32047087667940144,0.29274254755548595 l -2.8158730432054035 -3.1363801245160254" fill="#ff2703" stroke="none" /><path d="M 114.0293411484842 115.62618273729858 l 12.052842043922354 13.424715408141251 a39.04145185746778,39.04145185746778 0 0,0 -0.5039278133140926,0.44465770456750386 l -11.819971877701674 -13.630196254481044" fill="#ffe115" stroke="none" /><path d="M 113.48314897796784 116.09983520530334 l 4.805959330667946 5.738655958899428 a28.485280041698253,28.485280041698253 0 0,0 -0.37862345506703377,0.311581326966585 l -4.706465747056221 -5.820532404723191" fill="#ff5507" stroke="none" /><path d="M 112.63410532772338 116.77436683061366 l 1.010506922286328 1.341655254536312 a22.679631823351023,22.679631823351023 0 0,0 -0.31385913682091565,0.2321854861078763 l -0.9872628150468482 -1.3588506893839576" fill="#ff0200" stroke="none" /><path d="M 112.04921762599082 117.19931262002967 l 12.848825723280443 18.340690431077416 a43.393598369977255,43.393598369977255 0 0,0 -0.6154516440922572,0.42331325279436566 l -12.531217194565302 -18.559144473236877" fill="#e7ff1a" stroke="none" /><path d="M 111.1453310114006 117.79835938074945 l 5.2654084178291445 8.408510362867144 a30.921067096285064,30.921067096285064 0 0,0 -0.4535396107592614,0.27860107202812795 l -5.119889607137575 -8.497899901723649" fill="#ff770b" stroke="none" /><line stroke="#e1ed5e" stroke-width="0.3" x1="143.8653032363475" x2="146.44561519142675" y1="172.8068346515853" y2="177.08958963109032" /><path d="M 144.38136562736335 173.6633856474863 a86.0,86.0 0 0,1 -40.68145358897372,12.25698825130547" fill="none" id="id42" stroke="none" /><text fill="#e1ed5e" style="font-size:6.75px; font-family:Arial;" text-anchor="middle"><textPath startOffset="21.466115282336833" xlink:href="#id42">June</textPath></text><path d="M 110.21172684928248 118.3499491758327 l 11.255859467825148 20.226201916027478 a44.14721616755118,44.14721616755118 0 0,0 -0.6672056824325868,0.36381373602747286 l -10.906030973523913 -20.41695630381472" fill="#deff1b" stroke="none" /><path d="M 109.2508944713604 118.85261126421891 l 3.6289947474174773 7.395612117807786 a29.23800227445034,29.23800227445034 0 0,0 -0.4537283121058928,0.21781716283494726 l -3.5011537673113517 -7.456983557142292" fill="#ff6008" stroke="none" /><path d="M 108.59647513512805 119.15986991738527 l 4.061553437670821 9.052412099732408 a30.92181340030326,30.92181340030326 0 0,0 -0.48750348185386816,0.21370720003802549 l -3.9051292811591996 -9.120983853064887" fill="#ff770b" stroke="none" /><path d="M 107.93186726928326 119.44442032107085 l 8.455590755180852 20.728291980301137 a43.38658311220621,43.38658311220621 0 0,0 -0.6939351833308552,0.2761311306373676 l -8.09753449580813 -20.870769955344574" fill="#e7ff1a" stroke="none" /><path d="M 106.91757812671514 119.82793768551818 l 4.575307282374032 13.114258491228403 a34.88946408263836,34.88946408263836 0 0,0 -0.568748550337458,0.1929503879658494 l -4.348888999099348 -13.191071866092376" fill="#ffac0f" stroke="none" /><path d="M 105.53697534728816 120.25689768951611 l 5.895682355192458 21.569219075087872 a43.36046247156937,43.36046247156937 0 0,0 -0.7216617160917569,0.19059741830110252 l -5.523530196289204 -21.667507842692558" fill="#e8ff1a" stroke="none" /><path d="M 104.48393922423573 120.51570834832081 l 1.5572786366127065 7.125135450796058 a28.293330648218348,28.293330648218348 0 0,0 -0.4766867603781677,0.09989434537580211 l -1.4344004148051608 -7.1508857768984" fill="#ff5307" stroke="none" /><path d="M 103.06178313531738 120.77559828337769 l 3.2630971174329186 22.141605683776426 a43.38076194086429,43.38076194086429 0 0,0 -0.7396862163597144,0.10251376955130284 l -2.881482309886374 -22.19449401882033" fill="#e7ff1a" stroke="none" /><path d="M 101.98527174616119 120.90594882070398 l 1.480035890670169 15.585551269233312 a36.655667172100074,36.655667172100074 0 0,0 -0.6286546104288893,0.05424296502845054 l -1.2115369624997379 -15.608718486540425" fill="#ffc312" stroke="none" /><line stroke="#e1ed5e" stroke-width="0.3" x1="102.19456741930631" x2="102.32365962044197" y1="184.97166512339345" y2="189.96999836594603" /><path d="M 102.22038585953345 185.97133177190398 a86.0,86.0 0 0,1 -42.740103519485714,-10.115201625700543" fill="none" id="id43" stroke="none" /><text fill="#e1ed5e" style="font-size:6.75px; font-family:Arial;" text-anchor="middle"><textPath startOffset="22.20632615414155" xlink:href="#id43">July</textPath></text><path d="M 100.54218724476979 120.99299961872073 l 0.5785261733314245 22.4000100580071 a43.40747962471569,43.40747962471569 0 0,0 -0.7471053760254732,0.012862096581867023 l -0.19286110741328333 -22.40664963186813" fill="#e7ff1a" stroke="none" /><path d="M 99.45781275523022 120.99299961872073 l -0.39621237242058505 15.340984619971241 a36.34610026535254,36.34610026535254 0 0,0 -0.6252907772316537,-0.021536278667961324 l 0.6602235013268819 -15.331891542877186" fill="#ffbf11" stroke="none" /><path d="M 97.65516085044442 120.86867818915974 l -2.5872451186887053 23.02605097182131 a44.17094863532979,44.17094863532979 0 0,0 -0.7548448649059771,-0.09140120088800197 l 2.9832174066460717 -22.97810424220796" fill="#deff1b" stroke="none" /><path d="M 96.93821686468263 120.77559828337769 l -1.3092300170855853 8.883724187307756 a29.979679207733135,29.979679207733135 0 0,0 -0.5098888682630334,-0.07963415482848255 l 1.4619547489571356 -8.859871725132168" fill="#ff6a09" stroke="none" /><path d="M 96.22490169976321 120.6578951692458 l -1.3560945893714533 7.420749776253435 a28.543641015921153,28.543641015921153 0 0,0 -0.48256747422341395,-0.09248520495518346 l 1.4836296781665623 -7.396307372949782" fill="#ff5608" stroke="none" /><path d="M 95.51606077576429 120.51570834832081 l -4.784784265202191 21.892187557750532 a43.40897223275208,43.40897223275208 0 0,0 -0.728608954648087,-0.16582902593080326 l 5.16091336924314 -21.80658179824204" fill="#e7ff1a" stroke="none" /><path d="M 94.81253420990036 120.34920634021253 l -1.292429669780819 5.069897151086073 a26.232038949962092,26.232038949962092 0 0,0 -0.43658801512157225,-0.11530686288032818 l 1.3795081277138805 -5.046898938902163" fill="#ff3605" stroke="none" /><path d="M 94.11515582081647 120.15858648285463 l -2.0920838559767554 7.166452000423666 a28.465577615617892,28.465577615617892 0 0,0 -0.4691737514180433,-0.14135820261128723 l 2.2151325818350447 -7.129378428706653" fill="#ff5507" stroke="none" /><path d="M 93.42475214034765 119.94407469862007 l -7.527683603803423 22.833007562055744 a45.04188542456406,45.04188542456406 0 0,0 -0.7342476507810424,-0.24909666846123033 l 7.919600987521691 -22.70004790669639" fill="#d4ff1c" stroke="none" /><path d="M 92.40401165467489 119.57807347666478 l -1.9475158140108577 5.019571643647546 a26.384135708870357,26.384135708870357 0 0,0 -0.4219940529267125,-0.1679201426242431 l 2.0336309429794284 -4.985304656617236" fill="#ff3805" stroke="none" /><path d="M 91.40352486487194 119.15986991738527 l -6.1164955226639055 13.632478047383337 a35.941752748294164,35.941752748294164 0 0,0 -0.5622864793347115,-0.25811814425231316 l 6.350249997766037 -13.52517283279695" fill="#ffba11" stroke="none" /><path d="M 90.7491055286396 118.85261126421891 l -14.607111521919515 29.7681695611587 a54.15888457164519,54.15888457164519 0 0,0 -0.8333919958851226,-0.4178800476708361 l 15.117357425487398 -29.51232167257856" fill="#6eff28" stroke="none" /><path d="M 90.10565033884886 118.52300852407294 l -3.6244431825938728 6.785245545728327 a28.692603297952996,28.692603297952996 0 0,0 -0.43363703594632824,-0.2364534869552066 l 3.740703030408841 -6.721851407013355" fill="#ff5808" stroke="none" /><line stroke="#e1ed5e" stroke-width="0.3" x1="58.666819895761336" x2="56.23545636021788" y1="174.27360380694188" y2="178.64263932499728" /><path d="M 58.180547188652646 175.14741091055294 a86.0,86.0 0 0,1 -31.652253787137756,-30.449443065178592" fill="none" id="id44" stroke="none" /><text fill="#e1ed5e" style="font-size:6.75px; font-family:Arial;" text-anchor="middle"><textPath startOffset="22.20632615414155" xlink:href="#id44">August</textPath></text><path d="M 89.4739219176387 118.17145234162733 l -8.31337716325688 14.351607097921804 a37.58556197877179,37.58556197877179 0 0,0 -0.5570397368213257,-0.3291088951332535 l 8.559184771106587 -14.206379630494801" fill="#ffcf13" stroke="none" /><path d="M 88.8546689885994 117.79835938074946 l -4.132681767914312 6.599620525973642 a28.78678686504928,28.78678686504928 0 0,0 -0.4177075151608147,-0.2666006993226914 l 4.2456710851220505 -6.527505397827147" fill="#ff5a08" stroke="none" /><path d="M 88.24862548938628 117.40417183066458 l -9.877636108973496 14.629103681963562 a38.6515826383624,38.6515826383624 0 0,0 -0.5481956089174125,-0.37705393852783253 l 10.127988602513799 -14.456908954070629" fill="#ffdc14" stroke="none" /><path d="M 87.65650970185807 116.9893568818739 l -4.3720134952661125 6.017560330940262 a28.438113627748294,28.438113627748294 0 0,0 -0.39354967776991906,-0.29113864317018784 l 4.474948143454596 -5.941411739030308" fill="#ff5507" stroke="none" /><path d="M 87.07902340077011 116.55440617244103 l -4.779702144903235 6.123773236670964 a28.768278525398028,28.768278525398028 0 0,0 -0.3877450325730496,-0.3080481044198336 l 4.884404670193643 -6.040591218245999" fill="#ff5908" stroke="none" /><path d="M 86.24171649860922 115.8653595955263 l -17.64204535776921 20.34391816197856 a47.9279923237301,47.9279923237301 0 0,0 -0.6186308966276861,-0.5458698392929345 l 17.989618607303484 -20.03722518091334" fill="#b2ff20" stroke="none" /><path d="M 85.70375840098266 115.38237550388516 l -5.073424801914352 5.458870071077631 a28.45244266489765,28.45244266489765 0 0,0 -0.35587795771992675,-0.3365048218063277 l 5.166638594025096 -5.370730612525372" fill="#ff5507" stroke="none" /><path d="M 84.9287848128048 114.62390073753433 l -4.591100348568981 4.454836251729412 a27.397168783169064,27.397168783169064 0 0,0 -0.32549591057931526,-0.3412811609269101 l 4.667102810527253 -4.375147974220002" fill="#ff4606" stroke="none" /><path d="M 84.67929136418377 114.36230785411682 l -10.941595074522693 10.257133701244818 a35.99757628885519,35.99757628885519 0 0,0 -0.4198921721620407,-0.4557100231707162 l 11.116533654680463 -10.067272423272758" fill="#ffbb11" stroke="none" /><path d="M 83.50135304334701 112.99209946851258 l -6.105492232265006 4.807858644058764 a28.77126374147081,28.77126374147081 0 0,0 -0.3030479714111578,-0.39173035432657033 l 6.187347020894233 -4.702050295618941" fill="#ff5908" stroke="none" /><path d="M 83.06392112726016 112.41649034213515 l -21.061800455790408 15.441215402476026 a47.11571503032601,47.11571503032601 0 0,0 -0.4738948148131986,-0.6581984497637313 l 21.324475062979214 -15.076383347261157" fill="#bcff1f" stroke="none" /><path d="M 82.6465618267979 111.8261652097733 l -6.110870504547417 4.164486797429455 a28.39497725549659,28.39497725549659 0 0,0 -0.2717762976327503,-0.4062686898686684 l 6.181649907590899 -4.058681193354966" fill="#ff5407" stroke="none" /><path d="M 82.05923443525364 110.91462005526583 l -14.21621196682441 8.64871410771402 a37.64034069370736,37.64034069370736 0 0,0 -0.33198623531946114,-0.556428026207996 l 14.362979077842104 -8.402723987619913" fill="#ffd013" stroke="none" /><line stroke="#e1ed5e" stroke-width="0.3" x1="26.63291911575756" x2="22.317208475507996" y1="142.92168965132927" y2="145.44649492493687" /><path d="M 25.769776987707644 143.4266507060508 a86.0,86.0 0 0,1 -11.730757126820373,-40.83630448921669" fill="none" id="id45" stroke="none" /><text fill="#e1ed5e" style="font-size:6.75px; font-family:Arial;" text-anchor="middle"><textPath startOffset="21.46611528233685" xlink:href="#id45">September</textPath></text><path d="M 81.51974371655577 109.97397251340807 l -23.65361593489165 12.766084601795955 a47.878736258529194,47.878736258529194 0 0,0 -0.38519011429717664,-0.7286345335655903 l 23.86985855741371 -12.357035053144239" fill="#b3ff20" stroke="none" /><path d="M 81.02952815118164 109.00673069616217 l -2.9426524187022283 1.3971016682598785 a24.257467778620168,24.257467778620168 0 0,0 -0.1758382060521911,-0.37873985253523806 l 2.966265241594246 -1.3462417484458131" fill="#ff1902" stroke="none" /><path d="M 80.45479744820244 107.68017299344265 l -17.15488836841708 6.740913019626042 a39.431768858984086,39.431768858984086 0 0,0 -0.2427977752006272,-0.6338683754702481 l 17.268380423211216 -6.444621077322636" fill="#ffe615" stroke="none" /><path d="M 79.97269907076064 106.31721596034903 l -7.382837111649445 2.328769942547638 a28.741411580742987,28.741411580742987 0 0,0 -0.1447653269345175,-0.47310146448776486 l 7.421829211090093 -2.2013415055078256" fill="#ff5908" stroke="none" /><path d="M 79.67330655649465 105.27499134158121 l -31.702186853025808 8.227051862797325 a53.75229814253222,53.75229814253222 0 0,0 -0.2247068384549081,-0.8975921203332063 l 31.839105005775775 -7.680131903066727" fill="#72ff27" stroke="none" /><path d="M 79.4281124754447 104.21870165774334 l -2.4295570728867313 0.498232184029544 a23.480117513267626,23.480117513267626 0 0,0 -0.07778634995891698,-0.39663092260299987 l 2.437773355821315 -0.45633753435858926" fill="#ff0e01" stroke="none" /><path d="M 79.23777060512086 103.15116336523772 l -11.96164728056804 1.8154651883250155 a33.0986329605762,33.0986329605762 0 0,0 -0.0806439507371979,-0.5640236036286167 l 11.991125282321835 -1.6092961127159982" fill="#ff940d" stroke="none" /><path d="M 79.1416061653843 102.43462659150553 l -10.060537852660783 1.1742827935431581 a31.12883813495072,31.12883813495072 0 0,0 -0.057540469206908355,-0.5327532819597404 l 10.079260623368743 -1.0009331896986358" fill="#ff7a0b" stroke="none" /><path d="M 79.07016306316243 101.71520430193888 l -14.876210862991073 1.2191084405365433 a35.92608036391206,35.92608036391206 0 0,0 -0.04520431794839067,-0.61677700340793 l 14.8949917396038 -0.9628583006318527" fill="#ffba11" stroke="none" /><path d="M 79.04373962182676 101.35467743843564 l -11.916440241435224 0.7703155262545008 a32.94131207354056,32.94131207354056 0 0,0 -0.03170781540756508,-0.566164344207701 l 11.92793440773032 -0.5650794657113622" fill="#ff920d" stroke="none" /><line stroke="#e1ed5e" stroke-width="0.3" x1="15.007084014347285" x2="10.007500721073583" y1="101.09737516637583" y2="101.16192664675087" /><path d="M 14.007167355692545 101.11028546245083 a86.0,86.0 0 0,1 10.666146001902534,-42.60595125391555" fill="none" id="id46" stroke="none" /><text fill="#e1ed5e" style="font-size:6.75px; font-family:Arial;" text-anchor="middle"><textPath startOffset="22.20632615414155" xlink:href="#id46">October</textPath></text><path d="M 79.00175016825051 100.2711162175752 l -7.761213426961503 0.1002079147058314 a28.761860310841545,28.761860310841545 0 0,0 -0.0021307097164053285,-0.4951018995999576 l 7.7617884339674115 0.03340346309780156" fill="#ff5908" stroke="none" /><path d="M 79.21141760316559 97.0276538004421 l -8.868590106428153 -1.2680287474672922 a29.958782695223654,29.958782695223654 0 0,0 0.07738511433088098,-0.5098712155678746 l 8.84544909865797 1.4204990754272588" fill="#ff6a09" stroke="none" /><path d="M 79.32604984820605 96.31383870115002 l -16.468823236441846 -2.9363879861394344 a37.72855382865808,37.72855382865808 0 0,0 0.11949940218290528,-0.6383705848074096 l 16.41583811034908 3.219436648409417" fill="#ffd113" stroke="none" /><path d="M 79.54389044137918 95.25157060432595 l -16.14335410635351 -3.7473194481928926 a37.572576288855196,37.572576288855196 0 0,0 0.15166295614253159,-0.62874086630989 l 16.076458349950165 4.024645546162179" fill="#ffcf13" stroke="none" /><path d="M 79.91906864156998 93.8553929516997 l -15.866400216498343 -4.854993668434683 a37.59257723654284,37.59257723654284 0 0,0 0.19466602978544206,-0.6171445117095382 l 15.780478702944698 5.127388346570635" fill="#ffcf13" stroke="none" /><path d="M 80.38941819471856 92.48833698450439 l -15.490027245565285 -5.933320384109957 a37.58750236921911,37.58750236921911 0 0,0 0.23663382176418968,-0.6022072655050772 l 15.385599873919404 6.199076654510798" fill="#ffcf13" stroke="none" /><path d="M 81.10775173730289 90.83032412892265 l -14.924911935431135 -7.244061318128108 a37.590039802880966,37.590039802880966 0 0,0 0.2875458812864522,-0.5796749503859708 l 14.79800604119127 7.4998958570130405" fill="#ffcf13" stroke="none" /><path d="M 81.26839172434947 90.50648371742162 l -13.5067020087884 -6.8454397271936145 a36.142359268385135,36.142359268385135 0 0,0 0.28602472255922534,-0.5525087241437434 l 13.386867853069061 7.076921173597693" fill="#ffbc11" stroke="none" /><path d="M 81.6062741919709 89.86733742301443 l -11.912822375048002 -6.562488248750252 a34.6007936884003,34.6007936884003 0 0,0 0.29186981938653367,-0.5192038409790173 l 11.798094914369038 6.766575599664053" fill="#ffa80f" stroke="none" /><line stroke="#e1ed5e" stroke-width="0.3" x1="26.266209847984243" x2="21.928928074336255" y1="57.711370442889674" y2="55.22380399835377" /><path d="M 25.398753493254645 57.213857153982495 a86.0,86.0 0 0,1 29.58750427330803,-30.492523968695096" fill="none" id="id47" stroke="none" /><text fill="#e1ed5e" style="font-size:6.75px; font-family:Arial;" text-anchor="middle"><textPath startOffset="21.46611528233685" xlink:href="#id47">November</textPath></text><path d="M 82.15384107792192 88.93136811851018 l -11.373501514510032 -7.054128679305711 a34.383469958301745,34.383469958301745 0 0,0 0.316282740059518,-0.5002833393098429 l 11.250391178204552 7.2488596663297695" fill="#ffa50f" stroke="none" /><path d="M 82.54541684631803 88.32363383020206 l -12.413563236998325 -8.304140439845398 a35.9350360121304,35.9350360121304 0 0,0 0.3483568646372621,-0.511170713875828 l 12.268781906692322 8.51658917699164" fill="#ffba11" stroke="none" /><path d="M 82.95767976084542 87.72973835380427 l -6.079926884220191 -4.3774728213194365 a28.49184751705838,28.49184751705838 0 0,0 0.28998919299790377,-0.3955449333527343 l 6.003675078708654 4.481480198343672" fill="#ff5507" stroke="none" /><path d="M 83.39014120810768 87.1503855733568 l -11.810794895166438 -9.13699281712945 a35.93249857846853,35.93249857846853 0 0,0 0.38267412767321063,-0.4859572809788745 l 11.651766686899256 9.338942492061372" fill="#ffba11" stroke="none" /><path d="M 83.84228863543731 86.58626213691792 l -22.980753643426482 -19.078061138353196 a50.86783311220621,50.86783311220621 0 0,0 0.5650916942850446,-0.6688903269378792 l 22.648951335654314 19.47081041492019" fill="#91ff23" stroke="none" /><path d="M 84.80347519578584 85.50635884689758 l -3.2602248722308564 -3.109429950947046 a25.505288097043213,25.505288097043213 0 0,0 0.3057424989796792,-0.31509452072296484 l 3.206218109548059 3.1650886672201346" fill="#ff2b04" stroke="none" /><path d="M 85.57189188830299 84.74124197986013 l -22.770520347651207 -24.0814566461281 a54.14231662244124,54.14231662244124 0 0,0 0.6826885045097693,-0.6344845628608177 l 22.352623959346584 24.469845795063566" fill="#6eff28" stroke="none" /><path d="M 86.65592168130627 83.78471172551755 l -9.378666417260073 -11.396649206789629 a35.759505307050794,35.759505307050794 0 0,0 0.47866073384888985,-0.3870436914830227 l 9.181102284846682 11.556398995536785" fill="#ffb711" stroke="none" /><path d="M 87.51073957382395 83.11751280151077 l -14.27287405385099 -19.293505402030117 a44.99904757391964,44.99904757391964 0 0,0 0.626675343933895,-0.45530628862036243 l 13.938653393563312 19.536330925467148" fill="#d4ff1c" stroke="none" /><path d="M 88.39885842347998 82.49532879139004 l -8.252125521429383 -12.451424980207078 a35.937722706595906,35.937722706595906 0 0,0 0.518586428491396,-0.3373030385107791 l 8.036572067153699 12.59162694287739" fill="#ffba11" stroke="none" /><path d="M 89.00827224532344 82.1063720568725 l -5.976595715736994 -9.729405830524454 a32.418451478392726,32.418451478392726 0 0,0 0.47799915867585335,-0.2879891447331143 l 5.808234490843491 9.830841584716188" fill="#ff8b0c" stroke="none" /><line stroke="#e1ed5e" stroke-width="0.3" x1="56.762969772571076" x2="54.21961505331055" y1="26.818313649435495" y2="22.513508569990535" /><path d="M 56.25429882871897 25.957352633546506 a86.0,86.0 0 0,1 42.265352541879196,-11.944610805530505" fill="none" id="id48" stroke="none" /><text fill="#e1ed5e" style="font-size:6.75px; font-family:Arial;" text-anchor="middle"><textPath startOffset="22.20632615414155" xlink:href="#id48">December</textPath></text><path d="M 89.63071344664047 81.73862282372117 l -7.800180835681424 -13.736918499702448 a36.79701715314632,36.79701715314632 0 0,0 0.5534900625086504,-0.3080166205350902 l 7.562566684100728 13.869150517797722" fill="#ffc512" stroke="none" /><path d="M 90.26544431104013 81.39251694778311 l -4.119496620296971 -7.874366945455421 a29.886838987869595,29.886838987869595 0 0,0 0.45789414302239473,-0.23455116476107385 l 3.9833419896858127 7.944110635528999" fill="#ff6909" stroke="none" /><path d="M 91.23893434514133 80.91482961587045 l -6.222644023581116 -13.555453880655437 a35.91548284685368,35.91548284685368 0 0,0 0.5640746888948659,-0.2530838705246039 l 5.988387216219476 13.66055808169657" fill="#ffb911" stroke="none" /><path d="M 92.91201910852362 80.23233633223022 l -5.033913987802396 -14.039078288574858 a35.91428876042457,35.91428876042457 0 0,0 0.5837234792952662,-0.20364966021515488 l 4.791508504443845 14.123648801962224" fill="#ffb911" stroke="none" /><path d="M 93.59665428221793 80.00007090966166 l -3.948370813978973 -12.332168179308104 a33.94882249810462,33.94882249810462 0 0,0 0.5580776240758483,-0.1733974343830378 l 3.735507817192396 12.398305748573666" fill="#ffa00e" stroke="none" /><path d="M 94.63758080256005 79.69619591428918 l -8.162202190705289 -30.90466225899634 a52.9643503601213,52.9643503601213 0 0,0 0.8834733879868544,-0.22521703795340114 l 7.629019914033434 31.0405822931186" fill="#7bff26" stroke="none" /><path d="M 95.692805502759 79.44645832069477 l -0.7858017557466509 -3.7497747428762787 a24.831226307808947,24.831226307808947 0 0,0 0.4190962236957536,-0.08406675982079558 l 0.7211391225837608 3.7627454587742846" fill="#ff2203" stroke="none" /><path d="M 96.75951476605007 79.25152402106235 l -2.7921776755106715 -17.87801123803993 a39.09473796436694,39.09473796436694 0 0,0 0.6657852856224458,-0.09811944433351001 l 2.484023409459577 17.92342516653441" fill="#ffe215" stroke="none" /><path d="M 97.47563105711357 79.15227682838746 l -2.6905629444617865 -22.220250966089345 a43.38255307050796,43.38255307050796 0 0,0 0.7421170261753895,-0.0833854947953435 l 2.307679214776679 22.263272414355285" fill="#e7ff1a" stroke="none" /><path d="M 98.19473922651362 79.07773832637324 l -1.570946410771545 -18.206650454123427 a39.27429871114481,39.27429871114481 0 0,0 0.674040121971944,-0.052318486151252064 l 1.257316099437267 18.23099420246314" fill="#ffe415" stroke="none" /><path d="M 99.27714615592234 79.0124445844662 l -0.2941029373332373 -8.539072933932438 a29.544136182714176,29.544136182714176 0 0,0 0.5084030429813402,-0.013130550665128797 l 0.14707325915701802 8.542870276739928" fill="#ff6409" stroke="none" /></svg>