<?xml version="1.0" encoding="utf-8" ?>
<svg baseProfile="full" height="200mm" version="1.1" viewBox="0,0,200,200" width="200mm" xmlns="http://www.w3.org/2000/svg" xmlns:ev="http://www.w3.org/2001/xml-events" xmlns:xlink="http://www.w3.org/1999/xlink"><defs /><rect fill="#1a1a1a" height="200" width="200" x="0" y="0" /><text alignment-baseline="middle" fill="#e1ed5e" style="dominant-baseline: central; font-size:9.0px; font-family:Arial;" text-anchor="middle" x="100.0" y="100.0">2018</text><line stroke="#e1ed5e" stroke-width="0.3" x1="100.0" x2="100.0" y1="15.0" y2="10.0" /><path d="M 100.0 14.0 a86.0,86.0 0 0,1 42.46469731375804,11.215312516191453" fill="none" id="id49" stroke="none" /><text fill="#e1ed5e" style="font-size:6.75px; font-family:Arial;" text-anchor="middle"><textPath startOffset="22.20632615414155" xlink:href="#id49">January</textPath></text><path d="M 100.0 79.0 l 0.0 -4.415910494726415 a25.415910494726415,25.415910494726415 0 0,0 0.4374931193705423,0.0037656413999294113 l -0.07601264009801392 4.415256229935044" fill="#ff2703" stroke="none" /><path d="M 101.80526077348638 79.07773832637324 l 2.803898927698247 -32.496084739276 a53.61682652526076,53.61682652526076 0 0,0 0.9188261253144114,0.0872536119678541 l -3.3628501801029027 32.44300558279297" fill="#75ff27" stroke="none" /><path d="M 102.88285421437855 79.19881850522331 l 1.23759968847976 -8.929877761264438 a30.015229881708528,30.015229881708528 0 0,0 0.5111608221554143,0.07533181780678794 l -1.39112949106383 8.907251459296681" fill="#ff6809" stroke="none" /><path d="M 103.59715602781102 79.31037775812273 l 3.4123953956128035 -19.626941708756807 a40.921377542101276,40.921377542101276 0 0,0 0.6929448335791141,0.1266312391446738 l -3.7497353502948183 19.565294988261396" fill="#fff717" stroke="none" /><path d="M 104.66035177308747 79.52364482259891 l 5.925764508360492 -26.036244618169828 a47.70207330575141,47.70207330575141 0 0,0 0.7990694986543171,0.18911393343141678 l -6.373057693977333 25.93038477259754" fill="#b6ff1f" stroke="none" /><path d="M 106.40334571778207 80.00007090966166 l 3.1397849199159564 -9.806666471693065 a31.297036303245733,31.297036303245733 0 0,0 0.5116576274193776,0.16868547528037459 l -3.3081253695777515 9.751167272153454" fill="#ff7a0b" stroke="none" /><path d="M 109.08828744355905 81.06846463323043 l 0.7539661481059474 -1.5705639689390194 a22.7421642095449,22.7421642095449 0 0,0 0.35145170173163387,0.17245582370173015 l -0.7808891168480131 1.5573529851024572" fill="#ff0000" stroke="none" /><path d="M 110.36928655335952 81.73862282372117 l 3.906020394821822 -6.878902547540171 a28.91051803507954,28.91051803507954 0 0,0 0.4306335479758541,0.2494507464598289 l -4.023850675263004 6.8106476436902925" fill="#ff5908" stroke="none" /><line stroke="#e1ed5e" stroke-width="0.3" x1="143.23703022742887" x2="145.7803849466894" y1="26.81831364943548" y2="22.513508569990506" /><path d="M 143.74570117128098 25.957352633546492 a86.0,86.0 0 0,1 28.547481713284135,27.462654790039103" fill="none" id="id50" stroke="none" /><text fill="#e1ed5e" style="font-size:6.75px; font-family:Arial;" text-anchor="middle"><textPath startOffset="19.985693538727396" xlink:href="#id50">February</textPath></text><path d="M 112.77801427241765 83.33499621200491 l 1.7226976178932165 -2.2467311207916483 a23.831163685099938,23.831163685099938 0 0,0 0.32338599156763354,0.25240789588213974 l -1.7611161646202804 2.2167448356862844" fill="#ff1001" stroke="none" /><path d="M 114.16331599549186 84.49514656593476 l 15.94458757912627 -17.454845571450843 a44.641097838121325,44.641097838121325 0 0,0 0.5628862269655921,0.523141402407378 l -16.24268168988671 17.177799582968824" fill="#daff1c" stroke="none" /><path d="M 114.94478906791727 85.2469230424477 l 18.819931681658787 -18.578509149482617 a47.44524211875765,47.44524211875765 0 0,0 0.5687458551690342,0.5861425979237852 l -19.13694180053093 18.251802356008717" fill="#b9ff1f" stroke="none" /><path d="M 115.68641384162765 86.03803664274999 l 9.750128593684103 -8.678270223385093 a34.052868713944406,34.052868713944406 0 0,0 0.3859457058301955,0.441202659225124 l -9.898066163092146 8.50915200795702" fill="#ff9f0e" stroke="none" /><path d="M 117.04232023915458 87.72973835380427 l 13.221328959382356 -9.51919476723165 a37.2916729794301,37.2916729794301 0 0,0 0.37058578748607607,0.5241673153247948 l -13.383227366672315 9.290200951575061" fill="#ffc912" stroke="none" /><path d="M 117.65298651832404 88.62581576622439 l 11.990123229306228 -7.725484322680445 a35.26345550958568,35.26345550958568 0 0,0 0.3243774507362126,0.5130872276513971 l -12.121328276288397 7.517949447314842" fill="#ffaf10" stroke="none" /><line stroke="#e1ed5e" stroke-width="0.3" x1="172.23445277983987" x2="176.4835382374775" y1="55.19839476539836" y2="52.563006222186495" /><path d="M 173.08426987136738 54.67131705675599 a86.0,86.0 0 0,1 12.851231095245387,41.99856678651699" fill="none" id="id51" stroke="none" /><text fill="#e1ed5e" style="font-size:6.75px; font-family:Arial;" text-anchor="middle"><textPath startOffset="22.20632615414155" xlink:href="#id51">March</textPath></text><path d="M 118.21658344932153 89.55222093294921 l 23.1324390494502 -13.26717565579925 a47.66697744886662,47.66697744886662 0 0,0 0.4020876579882208,0.7152690774144848 l -23.357384348730854 12.86702306844997" fill="#b6ff1f" stroke="none" /><path d="M 118.73160827565052 90.50648371742162 l 5.995337152798151 -3.038544797758952 a27.721370549501778,27.721370549501778 0 0,0 0.21205526695170188,0.4274904783868452 l -6.046752432703261 2.934894730873157" fill="#ff4806" stroke="none" /><path d="M 119.196687751892 91.48605970444005 l 14.884083220913965 -6.601253171111117 a37.28227492570363,37.28227492570363 0 0,0 0.2551337745248996,0.5888839278387307 l -14.995507705281545 6.344070098685783" fill="#ffc912" stroke="none" /><path d="M 119.47837535516314 92.15188598940014 l 7.454334862626113 -3.003457362760579 a29.03665753743954,29.03665753743954 0 0,0 0.1828015912536023,0.46521011061770745 l -7.504930003761416 2.8746982472470872" fill="#ff5b08" stroke="none" /><path d="M 119.7369772167798 92.82701384747503 l 13.951021562553603 -5.070203171572657 a35.843785327195384,35.843785327195384 0 0,0 0.20575513777656934,0.581697481779194 l -14.036229781139982 4.829308063366848" fill="#ffb710" stroke="none" /><path d="M 119.97218684219823 93.5106431181261 l 14.183895391182356 -4.608626981902291 a35.91383019637551,35.91383019637551 0 0,0 0.1859729567016973,0.5895850944376333 l -14.261123831652258 4.363791721038239" fill="#ffb811" stroke="none" /><path d="M 120.28053869075195 94.5502522615342 l 12.597025983255852 -3.3850488347702794 a34.04391119398636,34.04391119398636 0 0,0 0.14720533399502975,0.5672422007177776 l -12.653427649121184 3.1677102085036513" fill="#ff9f0e" stroke="none" /><path d="M 120.53481517161879 95.60439243477599 l 12.752525868235907 -2.7297591292473182 a34.04141483596527,34.04141483596527 0 0,0 0.11771959587797468,0.5740425567645381 l -12.797624760028878 2.5098409163193685" fill="#ff9f0e" stroke="none" /><path d="M 120.73433829027371 96.67025291283417 l 14.53348921543293 -2.3339468423810006 a35.71970164908805,35.71970164908805 0 0,0 0.09226587155093084,0.6079168130701942 l -14.57151098042316 2.083430916918724" fill="#ffb510" stroke="none" /><path d="M 120.87857604477298 97.74499172005257 l 11.345603880366403 -1.2253915514336553 a32.41158673736962,32.41158673736962 0 0,0 0.0551350018789809,0.5552019446727362 l -11.365016007927611 1.0299140760564842" fill="#ff890c" stroke="none" /><path d="M 120.94382443527127 98.46500227214037 l 14.178875169455551 -1.0391865743520186 a35.21690577472175,35.21690577472175 0 0,0 0.03910654425331894,0.6049609306326577 l -14.194662304713287 0.7949665794663255" fill="#ffae10" stroke="none" /><line stroke="#e1ed5e" stroke-width="0.3" x1="184.98032266829074" x2="189.97916517819016" y1="98.17113171792111" y2="98.06355123074" /><path d="M 185.9800911702706 98.14961562048488 a86.0,86.0 0 0,1 -9.607161424134198,41.387399972396054" fill="none" id="id52" stroke="none" /><text fill="#e1ed5e" style="font-size:6.75px; font-family:Arial;" text-anchor="middle"><textPath startOffset="21.466115282336823" xlink:href="#id52">April</textPath></text><path d="M 120.99824983174949 100.27111621757518 l 16.621128496854816 0.21460157517913278 a37.62251383951984,37.62251383951984 0 0,0 -0.013934550203629752,0.647483793199039 l -16.61497188396618 -0.5006751841682866" fill="#ffce13" stroke="none" /><path d="M 120.76222939487914 103.15116336523771 l 27.85911050040968 4.228284291023797 a49.178155119165545,49.178155119165545 0 0,0 -0.13422883691328533,0.8358430955904582 l -27.782199909135105 -4.70720661630746" fill="#a5ff21" stroke="none" /><path d="M 120.49622156327973 104.57218783832717 l 33.119104047217355 7.388033168624103 a54.93314142532487,54.93314142532487 0 0,0 -0.2138192329410933,0.9211276593409912 l -32.987024248345705 -7.957029485313659" fill="#67ff28" stroke="none" /><path d="M 120.23288151984713 105.62410040840565 l 1.971812852925418 0.5481015376163365 a23.04657304352893,23.04657304352893 0 0,0 -0.10953417544221548,0.3813028342481781 l -1.9620860405971032 -0.5819618473690966" fill="#ff0500" stroke="none" /><path d="M 119.79798401119884 107.00284435728193 l 12.357098440694188 4.370891351303428 a34.107348056640056,34.107348056640056 0 0,0 -0.20054428602121785,0.5518117447867672 l -12.280029893667743 -4.582950893096327" fill="#ffa00e" stroke="none" /><path d="M 119.54520255179757 107.68017299344265 l 13.838563760944307 5.437782667290077 a35.86860206281685,35.86860206281685 0 0,0 -0.2307502080442122,0.5727030926789072 l -13.742910938642702 -5.6751851278117975" fill="#ffb711" stroke="none" /><path d="M 119.12269723197855 108.67885076344098 l 28.26584479493119 12.828475277407884 a52.04074354641338,52.04074354641338 0 0,0 -0.3772343869663262,0.8125293091789357 l -28.040835791125033 -13.31312465386565" fill="#86ff25" stroke="none" /><line stroke="#e1ed5e" stroke-width="0.3" x1="174.80103733775053" x2="179.2010983576182" y1="140.37084112569926" y2="142.7455964860345" /><path d="M 175.68104954172406 140.8457921977663 a86.0,86.0 0 0,1 -30.038265399797805,32.042727171017184" fill="none" id="id53" stroke="none" /><text fill="#e1ed5e" style="font-size:6.75px; font-family:Arial;" text-anchor="middle"><textPath startOffset="22.206326154141568" xlink:href="#id53">May</textPath></text><path d="M 118.48025628344425 109.97397251340804 l 13.078477694856074 7.058580522098865 a35.861700367111474,35.861700367111474 0 0,0 -0.2978631686288429,0.5407081712672263 l -12.955038116775722 -7.282659211763896" fill="#ffb711" stroke="none" /><path d="M 117.94076556474637 110.91462005526583 l 15.137987472067477 9.209494492456813 a38.719296078317115,38.719296078317115 0 0,0 -0.351304525242142,0.5664147524863427 l -14.977218307157372 -9.468705576308428" fill="#ffdc14" stroke="none" /><path d="M 117.55443506779139 111.5257021239791 l 14.855096717212126 9.753399589578947 a38.77083852922324,38.77083852922324 0 0,0 -0.3710865783331542,0.5547240849199434 l -14.685007033468251 -10.007660588704697" fill="#ffdc14" stroke="none" /><path d="M 117.14729908036423 112.12312394758627 l 12.113441199647182 8.56419127040744 a35.83512149641629,35.83512149641629 0 0,0 -0.3604334191770737,0.5006104948392529 l -11.964227988094505 -8.771435370697825" fill="#ffb710" stroke="none" /><path d="M 116.71984013943494 112.70617746262583 l 5.8727646876799 4.462984675427945 a28.376150573975877,28.376150573975877 0 0,0 -0.29888624097890754,0.386350756735979 l -5.795071629482924 -4.563413426277177" fill="#ff5207" stroke="none" /><path d="M 115.80600337817218 113.82643327865902 l 5.7852127602610555 5.060663111274514 a28.68628634694948,28.68628634694948 0 0,0 -0.32830928856871455,0.3688589660898228 l -5.6972446220440025 -5.159496247105203" fill="#ff5607" stroke="none" /><path d="M 115.32070863581623 114.36230785411682 l 11.933815170058486 11.18728457153888 a37.35760620010489,37.35760620010489 0 0,0 -0.4438322858614641,0.4653563773076499 l -11.739476332818057 -11.391048065429038" fill="#ffca12" stroke="none" /><path d="M 114.29624159901734 115.38237550388516 l 10.188327664859512 10.962369431995521 a35.96581318105005,35.96581318105005 0 0,0 -0.45710913056251723,0.41755835281598197 l -9.998118984830132 -11.136120551398085" fill="#ffb811" stroke="none" /><path d="M 113.48314897796784 116.09983520530334 l 4.76653397631939 5.691579292390762 a28.42387506555562,28.42387506555562 0 0,0 -0.3778072663481095,0.31090965921675545 l -4.667856581426589 -5.772784070464696" fill="#ff5207" stroke="none" /><path d="M 112.34349029814194 116.9893568818739 l 37.03047089442582 50.96807064562168 a84.0,84.0 0 0,0 -1.1770906886044616,0.8398229526231229 l -36.14765287797247 -51.597937860089026" fill="#4dd2ff" stroke="none" /><line stroke="#e1ed5e" stroke-width="0.3" x1="143.8653032363475" x2="146.44561519142675" y1="172.8068346515853" y2="177.08958963109032" /><path d="M 144.38136562736335 173.6633856474863 a86.0,86.0 0 0,1 -40.68145358897372,12.25698825130547" fill="none" id="id54" stroke="none" /><text fill="#e1ed5e" style="font-size:6.75px; font-family:Arial;" text-anchor="middle"><textPath startOffset="21.466115282336833" xlink:href="#id54">June</textPath></text><path d="M 110.5260780823613 118.17145234162733 l 11.058656782748953 19.090857308656528 a43.06251850125284,43.06251850125284 0 0,0 -0.6446074185879765,0.36602491549447014 l -10.728400597239776 -19.278385389945626" fill="#edff1a" stroke="none" /><path d="M 109.2508944713604 118.85261126421891 l 3.810887676220153 7.766295913741608 a29.65090845521823,29.65090845521823 0 0,0 -0.4601359737066862,0.2208932297962823 l -3.676639034513234 -7.83074342003745" fill="#ff6309" stroke="none" /><path d="M 107.93186726928326 119.44442032107085 l 3.9296506918854557 9.633265052720958 a31.40393916438436,31.40393916438436 0 0,0 -0.5022819664085768,0.19986836035237188 l -3.7632476494350127 -9.699480257479399" fill="#ff7b0b" stroke="none" /><path d="M 107.2578585660854 119.70592522655815 l 6.145677700844094 16.686225576958208 a38.781998718023424,38.781998718023424 0 0,0 -0.6284169315917177,0.22532795366529296 l -5.857541208622641 -16.78954107166346" fill="#ffdc14" stroke="none" /><path d="M 106.57524785965236 119.94407469862006 l 4.652291507573623 14.111353872477391 a35.858469786143,35.858469786143 0 0,0 -0.5878717021462126,0.18821795465073635 l -4.40869846033647 -14.189344673787835" fill="#ffb711" stroke="none" /><path d="M 104.48393922423573 120.51570834832081 l 3.6121512806166494 16.526950629170447 a37.91708408600897,37.91708408600897 0 0,0 -0.6388280051109629,0.13387261967935274 l -3.3271318140763086 -16.58667922957634" fill="#ffd113" stroke="none" /><path d="M 103.41894727170886 120.7198165907248 l 2.6613399545902348 16.128495517018074 a37.34659285589417,37.34659285589417 0 0,0 -0.6351839802161793,0.09920267449144116 l -2.383320110765538 -16.17191649885662" fill="#ffca12" stroke="none" /><path d="M 102.34483914955558 120.86867818915974 l 0.49194482142613816 4.37822703834993 a25.40577821805256,25.40577821805256 0 0,0 -0.43500427167043326,0.045089971383797896 l -0.4165079531501022 -4.386046378189486" fill="#ff2703" stroke="none" /><path d="M 101.98527174616119 120.90594882070398 l 1.392135805012784 14.65991743817612 a35.725869121846046,35.725869121846046 0 0,0 -0.6127083222788025,0.05286705218837983 l -1.1395831649924397 -14.681708742643162" fill="#ffb510" stroke="none" /><path d="M 101.62511606390274 120.93702456842531 l 1.2639370727177772 16.283810204228935 a37.332789464483426,37.332789464483426 0 0,0 -0.6411235297567971,0.044215632276509084 l -0.9834507821820498 -16.303154181021732" fill="#ffca12" stroke="none" /><line stroke="#e1ed5e" stroke-width="0.3" x1="102.19456741930631" x2="102.32365962044197" y1="184.97166512339345" y2="189.96999836594603" /><path d="M 102.22038585953345 185.97133177190398 a86.0,86.0 0 0,1 -42.740103519485714,-10.115201625700543" fill="none" id="id55" stroke="none" /><text fill="#e1ed5e" style="font-size:6.75px; font-family:Arial;" text-anchor="middle"><textPath startOffset="22.20632615414155" xlink:href="#id55">July</textPath></text><path d="M 100.18074693466247 120.99922214144158 l 0.1222460580228848 14.20257628784695 a35.203102383311,35.203102383311 0 0,0 -0.6059859853706707,0.0 l 0.12224605802287501 -14.20257628784695" fill="#ffae10" stroke="none" /><path d="M 99.45781275523022 120.99299961872073 l -0.19809912517778072 7.6702189131946445 a28.672776644717676,28.672776644717676 0 0,0 -0.4932805077483386,-0.01698957807018154 l 0.33009998460076234 -7.665672536698369" fill="#ff5607" stroke="none" /><path d="M 96.58105272829116 120.7198165907248 l -1.2455718397950999 7.54852825157109 a28.65060311170678,28.65060311170678 0 0,0 -0.485901988865736,-0.08448028909082701 l 1.3753228001328859 -7.525969383959257" fill="#ff5507" stroke="none" /><path d="M 95.16358092515715 120.4354850818985 l -4.099116695794959 17.32013640455688 a38.79859215663423,38.79859215663423 0 0,0 -0.6485770634844895,-0.15940446240293088 l 4.396647044022659 -17.247010683839918" fill="#ffdd14" stroke="none" /><path d="M 93.76903079525671 120.05430185196036 l -4.468390281166236 14.381462104267547 a36.059646873725306,36.059646873725306 0 0,0 -0.5911698439134202,-0.189273915492712 l 4.715281470170598 -14.302415342115127" fill="#ffb911" stroke="none" /><path d="M 93.08242187328487 119.8279376855182 l -4.885170212737353 14.002422348831798 a35.83012878037411,35.83012878037411 0 0,0 -0.580585331622818,-0.20817724368325824 l 5.1254751049898974 -13.916257564108582" fill="#ffb610" stroke="none" /><path d="M 91.7346041902142 119.30500536409082 l -4.0682450602296765 9.501963912869801 a31.33624380863586,31.33624380863586 0 0,0 -0.49403725994874426,-0.21657141634477722 l 4.231202994836164 -9.430527943230572" fill="#ff7b0b" stroke="none" /><path d="M 91.07499286063937 119.00905698771935 l -3.3029339398183475 7.034802158508657 a28.771603053435115,28.771603053435115 0 0,0 -0.4464905217352409,-0.2143425836172408 l 3.4235371295538304 -6.976905298391854" fill="#ff5708" stroke="none" /><path d="M 90.42595943632237 118.69057910512821 l -2.4822768558012176 4.845936428366252 a26.444703688596235,26.444703688596235 0 0,0 -0.40335615102135775,-0.2110168744253744 l 2.565323909349071 -4.802490134996161" fill="#ff3605" stroke="none" /><line stroke="#e1ed5e" stroke-width="0.3" x1="58.666819895761336" x2="56.23545636021788" y1="174.27360380694188" y2="178.64263932499728" /><path d="M 58.180547188652646 175.14741091055294 a86.0,86.0 0 0,1 -31.652253787137756,-30.449443065178592" fill="none" id="id56" stroke="none" /><text fill="#e1ed5e" style="font-size:6.75px; font-family:Arial;" text-anchor="middle"><textPath startOffset="22.20632615414155" xlink:href="#id56">August</textPath></text><path d="M 89.7882731507175 118.34994917583269 l -7.218484707375797 12.971246632608311 a35.84451955014276,35.84451955014276 0 0,0 -0.5365604247478225,-0.3046730125387078 l 7.4406938990448275 -12.84507045427497" fill="#ffb710" stroke="none" /><path d="M 89.1626897886671 117.98757091392108 l -6.729047007928557 11.168750167513798 a34.039212167123125,34.039212167123125 0 0,0 -0.4992754935900551,-0.306695786766452 l 6.920301701450921 -11.051265913918968" fill="#ff9f0e" stroke="none" /><path d="M 87.95078237400918 117.19931262002967 l -5.057259061114252 7.218840450267759 a29.81405279412622,29.81405279412622 0 0,0 -0.41778385635151816,-0.2980776886574375 l 5.1807702453146565 -7.130718499766102" fill="#ff6609" stroke="none" /><path d="M 85.70375840098266 115.38237550388516 l -9.915115416458267 10.668400323537146 a35.56448691801177,35.56448691801177 0 0,0 -0.4448341086494413,-0.4206184148731707 l 10.097285359498526 -10.496147271918044" fill="#ffb310" stroke="none" /><path d="M 84.19399662182784 113.82643327865904 l -10.655278095747798 9.320793380309329 a35.15669949303654,35.15669949303654 0 0,0 -0.3945209321096793,-0.45891697375893015 l 10.814141537428258 -9.135999307388868" fill="#ffae10" stroke="none" /><path d="M 82.44556493220864 111.52570212397912 l -15.27637860861233 10.030000321630679 a39.27480916030534,39.27480916030534 0 0,0 -0.3661817440658306,-0.5683221986201921 l 15.446765216055205 -9.765556523089039" fill="#ffe315" stroke="none" /><path d="M 82.05923443525364 110.91462005526583 l -2.7372500240582776 1.6652602644543681 a24.20400209777985,24.20400209777985 0 0,0 -0.21347828919756867,-0.3578018919433786 l 2.7655091889540784 -1.6178962786248783" fill="#ff1602" stroke="none" /><line stroke="#e1ed5e" stroke-width="0.3" x1="26.63291911575756" x2="22.317208475507996" y1="142.92168965132927" y2="145.44649492493687" /><path d="M 25.769776987707644 143.4266507060508 a86.0,86.0 0 0,1 -11.730757126820373,-40.83630448921669" fill="none" id="id57" stroke="none" /><text fill="#e1ed5e" style="font-size:6.75px; font-family:Arial;" text-anchor="middle"><textPath startOffset="21.46611528233685" xlink:href="#id57">September</textPath></text><path d="M 80.58989483394504 108.01547362559985 l -13.733545769318363 5.671317747028638 a35.858469786143,35.858469786143 0 0,0 -0.23068502499230312,-0.5725413136896862 l 13.829133408568055 -5.4340770654961466" fill="#ffb711" stroke="none" /><path d="M 80.32549172779594 107.34259656027581 l -13.095305012980706 4.887214471322745 a34.97754909387565,34.97754909387565 0 0,0 -0.20566089155201617,-0.5658904457129021 l 13.177490165537947 -4.661076228603726" fill="#ffab0f" stroke="none" /><path d="M 79.97269907076064 106.31721596034903 l -14.085654365809617 4.443041071088158 a35.76977565409941,35.76977565409941 0 0,0 -0.1801659341745589,-0.5887926972136476 l 14.160047072490306 -4.199921401322462" fill="#ffb610" stroke="none" /><path d="M 79.76711848015287 105.62410040840567 l -7.178151460574305 1.9952988169981019 a28.450307091661326,28.450307091661326 0 0,0 -0.12709419223504728,-0.47296476950663013 l 7.211433729151127 -1.8714431143159327" fill="#ff5307" stroke="none" /><path d="M 79.67330655649465 105.27499134158121 l -12.969238225646373 3.3656541108041087 a34.39883456675019,34.39883456675019 0 0,0 -0.1438013560188909,-0.5744149352254272 l 13.025250895960323 -3.14191133618129" fill="#ffa40f" stroke="none" /><path d="M 79.50377843672027 104.57218783832718 l -11.636445836099844 2.595796301718701 a32.9224590641571,32.9224590641571 0 0,0 -0.11862426250689027,-0.5541730623817426 l 11.679404137331174 -2.3951094199207947" fill="#ff900d" stroke="none" /><path d="M 79.1416061653843 102.43462659150553 l -17.660050058821295 2.0613105602201958 a38.77994289377076,38.77994289377076 0 0,0 -0.071683244336039,-0.6636978149104437 l 17.692915604658385 -1.75701642342497" fill="#ffdc14" stroke="none" /><path d="M 79.07016306316243 101.71520430193888 l -10.349567149877554 0.8481490874604737 a31.38426198939456,31.38426198939456 0 0,0 -0.039489533597137964,-0.5388033113523979 l 10.362633242139028 -0.6698726396113152" fill="#ff7b0b" stroke="none" /><line stroke="#e1ed5e" stroke-width="0.3" x1="15.007084014347285" x2="10.007500721073583" y1="101.09737516637583" y2="101.16192664675087" /><path d="M 14.007167355692545 101.11028546245083 a86.0,86.0 0 0,1 10.666146001902534,-42.60595125391555" fill="none" id="id58" stroke="none" /><text fill="#e1ed5e" style="font-size:6.75px; font-family:Arial;" text-anchor="middle"><textPath startOffset="22.20632615414155" xlink:href="#id58">October</textPath></text><path d="M 79.12142395522702 97.74499172005258 l -8.920910277768023 -0.9635104663218278 a29.97279179534992,29.97279179534992 0 0,0 0.05981662493524008,-0.5124723130478855 l 8.903003299829194 1.116926517694575" fill="#ff6809" stroke="none" /><path d="M 79.21141760316559 97.0276538004421 l -1.7002034360238334 -0.2430946528759107 a22.717494318512905,22.717494318512905 0 0,0 0.058680484885974306,-0.38663107779352945 l 1.6957670576985568 0.2723248430615322" fill="#ff0000" stroke="none" /><path d="M 80.14247586403 93.16781622104843 l -20.92888853472368 -7.200797631131261 a43.13300390420139,43.13300390420139 0 0,0 0.2475976540985683,-0.6999919099953373 l 20.801837799815303 7.55998716755321" fill="#ecff1a" stroke="none" /><line stroke="#e1ed5e" stroke-width="0.3" x1="26.266209847984243" x2="21.928928074336255" y1="57.711370442889674" y2="55.22380399835377" /><path d="M 25.398753493254645 57.213857153982495 a86.0,86.0 0 0,1 29.58750427330803,-30.492523968695096" fill="none" id="id59" stroke="none" /><text fill="#e1ed5e" style="font-size:6.75px; font-family:Arial;" text-anchor="middle"><textPath startOffset="21.46611528233685" xlink:href="#id59">November</textPath></text><path d="M 83.17141714833178 87.43820079747576 l -3.13511173708393 -2.340223443997323 a24.91223355282326,24.91223355282326 0 0,0 0.2594716600361274,-0.3414342896814303 l 3.094364136823694 2.3938425095597795" fill="#ff2003" stroke="none" /><path d="M 83.84228863543731 86.58626213691792 l -5.78276778552099 -4.800712764815105 a28.515799778567683,28.515799778567683 0 0,0 0.3167825445840978,-0.3749706144295002 l 5.699274627449768 4.899542328873722" fill="#ff5407" stroke="none" /><path d="M 84.31358615837235 86.03803664274999 l -12.218675253010463 -10.875442779913818 a37.35760620010489,37.35760620010489 0 0,0 0.4316695578960437,-0.4766603074095075 l 12.029662054498374 11.084155874592883" fill="#ffca12" stroke="none" /><path d="M 86.10567301691215 84.25364557470407 l -11.493533664322538 -13.025550276582894 a38.37142124584814,38.37142124584814 0 0,0 0.49902252842752737,-0.4327474192026977 l 11.267617337248236 13.221462689205271" fill="#ffd714" stroke="none" /><path d="M 88.09926311788651 82.69761687909137 l -10.044968108381712 -14.604296218812225 a38.725316706485636,38.725316706485636 0 0,0 0.5524725282325288,-0.3730319172468344 l 9.792090885742644 14.775040048357726" fill="#ffdc14" stroke="none" /><line stroke="#e1ed5e" stroke-width="0.3" x1="56.762969772571076" x2="54.21961505331055" y1="26.818313649435495" y2="22.513508569990535" /><path d="M 56.25429882871897 25.957352633546506 a86.0,86.0 0 0,1 42.265352541879196,-11.944610805530505" fill="none" id="id60" stroke="none" /><text fill="#e1ed5e" style="font-size:6.75px; font-family:Arial;" text-anchor="middle"><textPath startOffset="22.20632615414155" xlink:href="#id60">December</textPath></text><path d="M 91.90106846888425 80.62456947434976 l -6.814485635634962 -16.302594051328764 a38.6695157624847,38.6695157624847 0 0,0 0.6163481276623812,-0.2514238768533268 l 6.532853638384201 16.41747881436567" fill="#ffdb14" stroke="none" /><path d="M 92.57280143429618 80.3572730644239 l -3.142404823144165 -8.310724335159735 a29.884978730843194,29.884978730843194 0 0,0 0.48273871330537416,-0.17779674210995752 l 2.998883784066221 8.363584345076015" fill="#ff6709" stroke="none" /><path d="M 93.94186890950719 79.89281104454417 l -3.391677927597805 -11.257120050320713 a32.756965211817494,32.756965211817494 0 0,0 0.5412851126759167,-0.15801596740519813 l 3.197402597198467 11.31383434664461" fill="#ff8e0d" stroke="none" /><path d="M 94.28887869178378 79.79150937346287 l -6.403471216124451 -22.658332937559074 a44.545795699551306,44.545795699551306 0 0,0 0.7396768088877317,-0.20218161332234974 l 6.0124965180129974 22.76520109170772" fill="#dbff1b" stroke="none" /><path d="M 97.47563105711357 79.15227682838746 l -1.413811359092445 -11.676085587369977 a32.76137054950178,32.76137054950178 0 0,0 0.5604273876208173,-0.062970546915574 l 1.2126172679619098 11.69869208775615" fill="#ff8e0d" stroke="none" /></svg>