<?xml version="1.0" encoding="utf-8" ?>
<svg baseProfile="full" height="200mm" version="1.1" viewBox="0,0,200,200" width="200mm" xmlns="http://www.w3.org/2000/svg" xmlns:ev="http://www.w3.org/2001/xml-events" xmlns:xlink="http://www.w3.org/1999/xlink"><defs /><rect fill="#1a1a1a" height="200" width="200" x="0" y="0" /><text alignment-baseline="middle" fill="#e1ed5e" style="dominant-baseline: central; font-size:9.0px; font-family:Arial;" text-anchor="middle" x="100.0" y="100.0">2023</text><line stroke="#e1ed5e" stroke-width="0.3" x1="100.0" x2="100.0" y1="15.0" y2="10.0" /><path d="M 100.0 14.0 a86.0,86.0 0 0,1 42.46469731375804,11.215312516191453" fill="none" id="id109" stroke="none" /><text fill="#e1ed5e" style="font-size:6.75px; font-family:Arial;" text-anchor="middle"><textPath startOffset="22.20632615414155" xlink:href="#id109">January</textPath></text><line stroke="#e1ed5e" stroke-width="0.3" x1="143.23703022742887" x2="145.7803849466894" y1="26.81831364943548" y2="22.513508569990506" /><path d="M 143.74570117128098 25.957352633546492 a86.0,86.0 0 0,1 28.547481713284135,27.462654790039103" fill="none" id="id110" stroke="none" /><text fill="#e1ed5e" style="font-size:6.75px; font-family:Arial;" text-anchor="middle"><textPath startOffset="19.985693538727396" xlink:href="#id110">February</textPath></text><path d="M 113.6212207817346 84.01681056812373 l 4.487661523848852 -5.265838164667393 a27.918681776834447,27.918681776834447 0 0,0 0.3630840536600507,0.3148629134443186 l -4.577639376155667 5.187810257803403" fill="#ff4906" stroke="none" /><path d="M 114.94478906791727 85.2469230424477 l 7.506876190815419 -7.4105778041169215 a31.548452660703454,31.548452660703454 0 0,0 0.37818442664618057,0.3897522950085113 l -7.633324881164708 7.280261313558296" fill="#ff7c0b" stroke="none" /><path d="M 115.68641384162765 86.03803664274999 l 5.593903359324373 -4.978950225042682 a28.488771604002427,28.488771604002427 0 0,0 0.3228837827821397,0.36911197982553595 l -5.678779005684361 4.881922689014198" fill="#ff5107" stroke="none" /><path d="M 116.15771136456269 86.58626213691792 l 8.321330054757336 -6.908165241242522 a31.815141278805335,31.815141278805335 0 0,0 0.3461813217623385,0.4243773675403878 l -8.439009868596084 6.763903704094034" fill="#ff7f0b" stroke="none" /><path d="M 116.60985879189232 87.15038557335679 l 8.532587832332531 -6.600926900140693 a31.787830692844146,31.787830692844146 0 0,0 0.3310839705051144,0.435667695957938 l -8.64494774306176 6.453074428301721" fill="#ff7f0b" stroke="none" /><path d="M 117.65298651832404 88.62581576622439 l 4.478272767666577 -2.885443743791843 a26.327355120527592,26.327355120527592 0 0,0 0.24217707014850773,0.38306596602574494 l -4.527277434061041 2.807930130051892" fill="#ff3304" stroke="none" /><line stroke="#e1ed5e" stroke-width="0.3" x1="172.23445277983987" x2="176.4835382374775" y1="55.19839476539836" y2="52.563006222186495" /><path d="M 173.08426987136738 54.67131705675599 a86.0,86.0 0 0,1 12.851231095245387,41.99856678651699" fill="none" id="id111" stroke="none" /><text fill="#e1ed5e" style="font-size:6.75px; font-family:Arial;" text-anchor="middle"><textPath startOffset="22.20632615414155" xlink:href="#id111">March</textPath></text><path d="M 118.03404312379186 89.2402003453031 l 13.131054737559689 -7.834489318959415 a36.29064489842328,36.29064489842328 0 0,0 0.3154526730209496,0.5392108736791497 l -13.263967085050966 7.60729903292637" fill="#ffbb11" stroke="none" /><path d="M 118.3937258080291 89.86733742301442 l 15.085073856958632 -8.310005538668328 a38.22253306928441,38.22253306928441 0 0,0 0.31249996930240603,0.5790149825973017 l -15.225881925479502 8.049109572738567" fill="#ffd413" stroke="none" /><path d="M 118.89224826269711 90.83032412892265 l 11.919537888224749 -5.785351613436977 a34.249365145542754,34.249365145542754 0 0,0 0.25286111580657866,0.5325899975130245 l -12.017357197873084 5.579319200283412" fill="#ffa00e" stroke="none" /><path d="M 119.34039704204932 91.81776055985345 l 6.89721851570165 -2.9179697419750177 a28.489070080351727,28.489070080351727 0 0,0 0.18718446818418266,0.45328203704683195 l -6.94642467077203 2.798813134474883" fill="#ff5107" stroke="none" /><path d="M 119.61058180528143 92.48833698450437 l 3.693707788104384 -1.4148426832741645 a24.955408580958157,24.955408580958157 0 0,0 0.1502023398428704,0.40246759487381745 l -3.7175147164488793 1.3510519513710137" fill="#ff1f03" stroke="none" /><path d="M 120.08093135843002 93.85539295169968 l 7.23294841312917 -2.213225323368707 a28.563987644026682,28.563987644026682 0 0,0 0.13981949927524492,0.47140184355975573 l -7.269973809516118 2.0883940930624214" fill="#ff5207" stroke="none" /><path d="M 120.37134235888165 94.90015583598534 l 3.3802480153989696 -0.8462249473088187 a24.484562139933292,24.484562139933292 0 0,0 0.09883275092581446,0.40972555868216826 l -3.3943135665856032 0.7879141569672443" fill="#ff1802" stroke="none" /><path d="M 120.45610955862082 95.25157060432595 l 7.309643871474468 -1.696770724254871 a28.50399389781686,28.50399389781686 0 0,0 0.10682972917227886,0.4788967286744954 l -7.3377679876487845 1.5706958260304118" fill="#ff5107" stroke="none" /><path d="M 120.67395015179393 96.31383870115 l 14.729719335711884 -2.6263060982331012 a35.962022437841114,35.962022437841114 0 0,0 0.10341331385662839,0.610351232273871 l -14.772744511088737 2.3723690776433926" fill="#ffb710" stroke="none" /><path d="M 120.83666639777658 97.38593545837742 l 7.435412061985165 -0.932809819600618 a28.493696463765918,28.493696463765918 0 0,0 0.05686479811520555,0.48718286350410256 l -7.450367213103959 0.8046832177716627" fill="#ff5107" stroke="none" /><path d="M 120.91429891909075 98.10471618934814 l 12.049363819246667 -1.0919306577581112 a33.098738818981204,33.098738818981204 0 0,0 0.04653606421686413,0.5678578549739952 l -12.066374367283025 0.8843588855763471" fill="#ff910d" stroke="none" /><line stroke="#e1ed5e" stroke-width="0.3" x1="184.98032266829074" x2="189.97916517819016" y1="98.17113171792111" y2="98.06355123074" /><path d="M 185.9800911702706 98.14961562048488 a86.0,86.0 0 0,1 -9.607161424134198,41.387399972396054" fill="none" id="id112" stroke="none" /><text fill="#e1ed5e" style="font-size:6.75px; font-family:Arial;" text-anchor="middle"><textPath startOffset="21.466115282336823" xlink:href="#id112">April</textPath></text><path d="M 120.99980553446 99.90962569577887 l 62.99941660337998 -0.27112291266339017 a84.0,84.0 0 0,0 -0.006222810841987947,1.4459620871852612 l -62.994749495248485 -0.8133486527255557" fill="#4dd2ff" stroke="none" /><path d="M 120.76222939487914 103.15116336523771 l 12.043493775543054 1.8278873454851592 a33.18141676773802,33.18141676773802 0 0,0 -0.09056669509207957,0.5639588967910409 l -12.010245326089684 -2.034925471969405" fill="#ff920d" stroke="none" /><path d="M 120.5718875245553 104.21870165774334 l 4.3917206065061265 0.9006154141615879 a25.483114766525166,25.483114766525166 0 0,0 -0.09181925595735552,0.4289489956284954 l -4.375567311824328 -0.9760782292062523" fill="#ff2603" stroke="none" /><path d="M 120.41448212921028 104.9243191809786 l 7.410975808774608 1.7876530050546495 a28.623533675712554,28.623533675712554 0 0,0 -0.11965820960104147,0.4779750665782628 l -7.379106284878505 -1.9149559110303083" fill="#ff5307" stroke="none" /><path d="M 120.23288151984713 105.62410040840565 l 10.124732453049447 2.8143550323435917 a31.508606068071558,31.508606068071558 0 0,0 -0.14975194700232713,0.5213061731248776 l -10.07478786916102 -2.988218680973051" fill="#ff7b0b" stroke="none" /><path d="M 120.02730092923936 106.31721596034902 l 11.421487968114164 3.602682475188904 a32.976214277592476,32.976214277592476 0 0,0 -0.1754142222359882,0.5398694639621061 l -11.357781494861928 -3.798750839128805" fill="#ff8f0d" stroke="none" /><path d="M 119.79798401119884 107.00284435728193 l 14.479864613709113 5.121745635664797 a36.35899598241359,36.35899598241359 0 0,0 -0.21378351895411954,0.5882404277938211 l -14.389556833749767 -5.370233860464749" fill="#ffbc11" stroke="none" /><path d="M 119.26925614724726 108.34839909993367 l 11.478459403245537 4.973038887355788 a33.509442275621595,33.509442275621595 0 0,0 -0.23386226243691083,0.5272976639610196 l -11.391156056077355 -5.169884887809495" fill="#ff960d" stroke="none" /><path d="M 118.97047184881838 109.00673069616215 l 6.772574930335905 3.2154581606210346 a28.4971289417829,28.4971289417829 0 0,0 -0.21419899996623828,0.44131338357854205 l -6.716222673754952 -3.3315605001648523" fill="#ff5107" stroke="none" /><line stroke="#e1ed5e" stroke-width="0.3" x1="174.80103733775053" x2="179.2010983576182" y1="140.37084112569926" y2="142.7455964860345" /><path d="M 175.68104954172406 140.8457921977663 a86.0,86.0 0 0,1 -30.038265399797805,32.042727171017184" fill="none" id="id113" stroke="none" /><text fill="#e1ed5e" style="font-size:6.75px; font-family:Arial;" text-anchor="middle"><textPath startOffset="22.206326154141568" xlink:href="#id113">May</textPath></text><path d="M 118.12598468904814 110.60418214915192 l 6.465806465093226 3.7826683997167874 a28.491010176622197,28.491010176622197 0 0,0 -0.25128952168508856,0.4211756924904902 l -6.39973606770991 -3.8934061860933817" fill="#ff5107" stroke="none" /><path d="M 117.55443506779139 111.5257021239791 l 12.512500115110537 8.21532271452144 a35.96843967935112,35.96843967935112 0 0,0 -0.34426403232244646,0.5146280179647684 l -12.36923297737737 -8.429487646692015" fill="#ffb711" stroke="none" /><path d="M 117.35343817320211 111.8261652097733 l 5.7181450010673744 3.89684895875501 a27.919726444057005,27.919726444057005 0 0,0 -0.2740641467361537,0.3948098440433743 l -5.650219947169084 -3.9947000649854036" fill="#ff4906" stroke="none" /><path d="M 116.93607887273984 112.41649034213515 l 10.241348123107084 7.5083259245846525 a33.69882551925409,33.69882551925409 0 0,0 -0.3469995878165053,0.4648626537424158 l -10.110587268595488 -7.683501457836384" fill="#ff990e" stroke="none" /><path d="M 115.80600337817218 113.82643327865902 l 12.386930728836473 10.835570963254735 a37.45738894784718,37.45738894784718 0 0,0 -0.42869294994739093,0.4816410738086536 l -12.198578929240744 -11.047186206804255" fill="#ffca12" stroke="none" /><path d="M 115.32070863581623 114.36230785411682 l 7.917160844370738 7.421895689053681 a31.85200310794421,31.85200310794421 0 0,0 -0.3784221952804258,0.39677415883952716 l -7.788232097711348 -7.557076964475715" fill="#ff800b" stroke="none" /><path d="M 114.81725581225074 114.88116024355365 l 3.1765854027642306 3.1902855025816983 a25.50206801470588,25.50206801470588 0 0,0 -0.31373621362452375,0.30705691775142624 l -3.1211992367639128 -3.2444925232556963" fill="#ff2703" stroke="none" /><path d="M 114.0293411484842 115.62618273729858 l 10.986710505463874 12.237235107703233 a37.44559913204973,37.44559913204973 0 0,0 -0.4833293330826915,0.42648194070752204 l -10.774438819474595 -12.424540190183045" fill="#ffca12" stroke="none" /><path d="M 111.45004920935366 117.60387380957326 l 4.557490852647602 7.006912581017772 a29.358680924044876,29.358680924044876 0 0,0 -0.4260059212121006,0.271897134690115 l -4.436203129388571 -7.0843241445316965" fill="#ff5d08" stroke="none" /><line stroke="#e1ed5e" stroke-width="0.3" x1="143.8653032363475" x2="146.44561519142675" y1="172.8068346515853" y2="177.08958963109032" /><path d="M 144.38136562736335 173.6633856474863 a86.0,86.0 0 0,1 -40.68145358897372,12.25698825130547" fill="none" id="id114" stroke="none" /><text fill="#e1ed5e" style="font-size:6.75px; font-family:Arial;" text-anchor="middle"><textPath startOffset="21.466115282336833" xlink:href="#id114">June</textPath></text><path d="M 110.21172684928248 118.3499491758327 l 3.651962815317352 6.5623897938293245 a28.510112662977562,28.510112662977562 0 0,0 -0.43087901858494526,0.23494959598621004 l -3.5384609848637583 -6.624280041575306" fill="#ff5207" stroke="none" /><path d="M 109.57404056367764 118.69057910512821 l 3.436565827045701 6.708913025088029 a28.5378709634627,28.5378709634627 0 0,0 -0.4391381659474565,0.22019299276483795 l -3.3205737534154838 -6.76707385876217" fill="#ff5207" stroke="none" /><path d="M 108.92500713936063 119.00905698771935 l 3.193956928323863 6.802695876742885 a28.515186760915704,28.515186760915704 0 0,0 -0.4461024503633325,0.2047837550183197 l -3.0763864821931115 -6.856666702095279" fill="#ff5207" stroke="none" /><path d="M 107.93186726928326 119.44442032107085 l 1.634346760386969 4.006487284830257 a25.327011635839902,25.327011635839902 0 0,0 -0.40508616263433517,0.1611921441378197 l -1.5651395217107675 -4.034026273374145" fill="#ff2403" stroke="none" /><line stroke="#e1ed5e" stroke-width="0.3" x1="102.19456741930631" x2="102.32365962044197" y1="184.97166512339345" y2="189.96999836594603" /><path d="M 102.22038585953345 185.97133177190398 a86.0,86.0 0 0,1 -42.740103519485714,-10.115201625700543" fill="none" id="id115" stroke="none" /><text fill="#e1ed5e" style="font-size:6.75px; font-family:Arial;" text-anchor="middle"><textPath startOffset="22.20632615414155" xlink:href="#id115">July</textPath></text><path d="M 100.54218724476979 120.99299961872073 l 0.11906454705478292 4.6100715482258865 a25.61160883489994,25.61160883489994 0 0,0 -0.44081275426828187,0.007588991328211432 l -0.03969210289383309 -4.611438016833257" fill="#ff2803" stroke="none" /><path d="M 99.81925306533755 120.99922214144158 l -0.02583242876598858 3.00121775853641 a24.00132893041237,24.00132893041237 0 0,0 -0.41309751293315844,-0.007111848314278741 l 0.07748963159181498 -3.0003284329429714" fill="#ff1101" stroke="none" /><path d="M 99.45781275523022 120.99299961872073 l -0.11785082153384979 4.5630771940725845 a25.564598809884778,25.564598809884778 0 0,0 -0.439808060362572,-0.015147878864163772 l 0.19637923357106482 -4.560372516782326" fill="#ff2803" stroke="none" /><path d="M 98.73552117531835 120.96189622390904 l -0.3618081336095542 5.997873907931296 a27.008776625985448,27.008776625985448 0 0,0 -0.46382717319685507,-0.031988237489434294 l 0.46499806758533935 -5.990757325925576" fill="#ff3c05" stroke="none" /><path d="M 98.01472825383883 120.90594882070398 l -0.7120979157159151 7.498763134101578 a28.53249838917526,28.53249838917526 0 0,0 -0.48854077895956377,-0.0506392492618834 l 0.8410712912810722 -7.485394516383934" fill="#ff5207" stroke="none" /><path d="M 95.51606077576429 120.51570834832081 l -1.606434023305282 7.350039832122904 a28.523544098696178,28.523544098696178 0 0,0 -0.47876069346164396,-0.10896437512087165 l 1.7327148661597886 -7.321298723424345" fill="#ff5207" stroke="none" /><path d="M 94.81253420990036 120.34920634021253 l -1.9217059821268156 7.538399892709117 a28.779487568223168,28.779487568223168 0 0,0 -0.4789859979086633,-0.12650455548366796 l 2.051182422846968 -7.504203987921867" fill="#ff5507" stroke="none" /><path d="M 94.11515582081647 120.15858648285463 l -1.2964545478890352 4.441016674181039 a25.626383414190418,25.626383414190418 0 0,0 -0.4223777435352723,-0.12725894930971446 l 1.3727072658645534 -4.4180423557656" fill="#ff2803" stroke="none" /><path d="M 93.42475214034765 119.94407469862007 l -1.440516087051073 4.369380600996766 a25.600714448150395,25.600714448150395 0 0,0 -0.41732854352538795,-0.14158050044201206 l 1.5155143635136867 -4.34393711365663" fill="#ff2803" stroke="none" /><path d="M 92.06813273071674 119.44442032107085 l -1.8769001890254835 4.601090126336245 a25.969183501364462,25.969183501364462 0 0,0 -0.4124506605358415,-0.17240440955472136 l 1.9558223090587872 -4.56810067376155" fill="#ff2d04" stroke="none" /><path d="M 91.40352486487194 119.15986991738527 l -1.8979918428177946 4.230254405558239 a25.636531610066708,25.636531610066708 0 0,0 -0.40106767197272003,-0.18411049707558427 l 1.9705275105579343 -4.196956838148581" fill="#ff2903" stroke="none" /><line stroke="#e1ed5e" stroke-width="0.3" x1="58.666819895761336" x2="56.23545636021788" y1="174.27360380694188" y2="178.64263932499728" /><path d="M 58.180547188652646 175.14741091055294 a86.0,86.0 0 0,1 -31.652253787137756,-30.449443065178592" fill="none" id="id116" stroke="none" /><text fill="#e1ed5e" style="font-size:6.75px; font-family:Arial;" text-anchor="middle"><textPath startOffset="22.20632615414155" xlink:href="#id116">August</textPath></text><path d="M 89.7882731507175 118.34994917583269 l -2.2250100335359595 3.998228863120385 a25.575642434808977,25.575642434808977 0 0,0 -0.38284451124592855,-0.21738910511342113 l 2.293503311703095 -3.9593365922123307" fill="#ff2803" stroke="none" /><path d="M 89.1626897886671 117.98757091392108 l -3.8850826751820815 6.448389753871298 a28.52831972028502,28.52831972028502 0 0,0 -0.41844361261090884,-0.25704224348025445 l 3.9955054877252993 -6.380559043562666" fill="#ff5207" stroke="none" /><path d="M 88.8546689885994 117.79835938074946 l -3.9975648224994282 6.383847665529814 a28.532199912825956,28.532199912825956 0 0,0 -0.41401335909872633,-0.26424291414092194 l 4.106859983645077 -6.314090322565087" fill="#ff5207" stroke="none" /><path d="M 87.65650970185807 116.9893568818739 l -2.6542317036924263 3.6532365297036575 a25.51564868859915,25.51564868859915 0 0,0 -0.35310623802032204,-0.2612195533095255 l 2.7167229121313126 -3.6070070276543653" fill="#ff2703" stroke="none" /><path d="M 87.07902340077011 116.55440617244103 l -4.6346302581081105 5.937906563222145 a28.53249838917526,28.53249838917526 0 0,0 -0.3845671372909575,-0.3055233922108931 l 4.736154888116426 -5.857249257006122" fill="#ff5207" stroke="none" /><path d="M 85.97065885151581 115.62618273729859 l -6.3711694640567105 7.0963459539511975 a30.53676707474227,30.53676707474227 0 0,0 -0.3881084233368777,-0.3545278427563357 l 6.492377436860443 -6.985625344608286" fill="#ff6e0a" stroke="none" /><path d="M 85.44109423537348 115.13401014063109 l -3.334128199844766 3.465832584012827 a25.809200178138266,25.809200178138266 0 0,0 -0.31751467119831817,-0.3107549337472884 l 3.393292823418878 -3.4079275473429687" fill="#ff2b04" stroke="none" /><path d="M 84.9287848128048 114.62390073753433 l -7.514579352653137 7.2915462471062895 a31.470699571710128,31.470699571710128 0 0,0 -0.3738920650791774,-0.3920243354347395 l 7.638977969111272 -7.16111479508905" fill="#ff7b0b" stroke="none" /><path d="M 84.43433777217949 114.09645910891817 l -5.564669674593341 5.039434710483591 a28.507426375833838,28.507426375833838 0 0,0 -0.32626226898729555,-0.36655911788979617 l 5.650590793228974 -4.942901422852931" fill="#ff5207" stroke="none" /><path d="M 83.95833913139862 113.55231037782056 l -4.769360152688239 4.029249191980708 a27.24352827471195,27.24352827471195 0 0,0 -0.2995542693164063,-0.3608324145768612 l 4.838010421898181 -3.9465555202900853" fill="#ff4006" stroke="none" /><path d="M 83.50135304334701 112.99209946851258 l -3.543497775573975 2.790378852742576 a25.510276114311704,25.510276114311704 0 0,0 -0.2686999603509758,-0.34733091987279907 l 3.5910045531430193 -2.7289699387565243" fill="#ff2703" stroke="none" /><path d="M 82.44556493220864 111.52570212397912 l -7.5146857838454295 4.933911548017714 a29.989659926470587,29.989659926470587 0 0,0 -0.2796109315513927,-0.43396237511217806 l 7.598501578773869 -4.803827572984088" fill="#ff6609" stroke="none" /><line stroke="#e1ed5e" stroke-width="0.3" x1="26.63291911575756" x2="22.317208475507996" y1="142.92168965132927" y2="145.44649492493687" /><path d="M 25.769776987707644 143.4266507060508 a86.0,86.0 0 0,1 -11.730757126820373,-40.83630448921669" fill="none" id="id117" stroke="none" /><text fill="#e1ed5e" style="font-size:6.75px; font-family:Arial;" text-anchor="middle"><textPath startOffset="21.46611528233685" xlink:href="#id117">September</textPath></text><path d="M 81.87401531095188 110.60418214915194 l -6.513209927174192 3.8104006832329933 a28.545929824893875,28.545929824893875 0 0,0 -0.24447278557054683,-0.42625890831467494 l 6.577834708897116 -3.697721929060011" fill="#ff5207" stroke="none" /><path d="M 81.35079622478065 109.6543875284942 l -9.942687209251329 5.147166417917793 a32.19599710051546,32.19599710051546 0 0,0 -0.2505482225582732,-0.4943554126235132 l 10.029814101595868 -4.975256793591595" fill="#ff850c" stroke="none" /><path d="M 81.02952815118164 109.00673069616217 l -12.896419257821728 6.122914396946584 a35.276123787143725,35.276123787143725 0 0,0 -0.255710545709698,-0.550777766380593 l 12.999904420371253 -5.9000165632871635" fill="#ffae10" stroke="none" /><path d="M 80.73074385275274 108.34839909993369 l -9.616643483242111 4.166407731901506 a31.48040005306246,31.48040005306246 0 0,0 -0.21114206948321462,-0.49907748189928086 l 9.686936533917633 -4.000255724336067" fill="#ff7b0b" stroke="none" /><path d="M 80.0844068197444 106.66101706037122 l -7.129945025690782 2.384698513661129 a28.518171524408732,28.518171524408732 0 0,0 -0.1517000355297237,-0.4668847019387336 l 7.169937312236756 -2.2616149117445916" fill="#ff5207" stroke="none" /><path d="M 79.76711848015287 105.62410040840567 l -13.156903978575352 3.65720270573793 a34.655740695118254,34.655740695118254 0 0,0 -0.15481531906712756,-0.5761253949611064 l 13.217907373984255 -3.430186377601285" fill="#ffa60f" stroke="none" /><path d="M 79.58551787078972 104.9243191809786 l -6.056100349656189 1.4608340747998605 a27.229798362644026,27.229798362644026 0 0,0 -0.10598801466607706,-0.45659359321740167 l 6.080348930252821 -1.3563718242338845" fill="#ff3f05" stroke="none" /><path d="M 79.4281124754447 104.21870165774334 l -6.0063065711617085 1.231720495186908 a27.131301167374165,27.131301167374165 0 0,0 -0.08988221146055236,-0.4583074598052932 l 6.026618715597928 -1.12814930831366" fill="#ff3e05" stroke="none" /><path d="M 79.1416061653843 102.43462659150553 l -5.191820166038707 0.6059979274902492 a26.227067067161915,26.227067067161915 0 0,0 -0.0484797324726087,-0.44886211286249966 l 5.201482200012368 -0.5165394927429674" fill="#ff3104" stroke="none" /><path d="M 79.07016306316243 101.71520430193888 l -7.732225779555089 0.6336574413206822 a28.75814650924803,28.75814650924803 0 0,0 -0.03618519986712212,-0.4937183029117059 l 7.741987538086546 -0.5004660019122158" fill="#ff5507" stroke="none" /><path d="M 79.0235259727143 100.99374915477108 l -4.492701359495833 0.212839306207058 a25.497740107640993,25.497740107640993 0 0,0 -0.016995903743874573,-0.4385887560287481 l 4.495699396090909 -0.13547330316431314" fill="#ff2703" stroke="none" /><line stroke="#e1ed5e" stroke-width="0.3" x1="15.007084014347285" x2="10.007500721073583" y1="101.09737516637583" y2="101.16192664675087" /><path d="M 14.007167355692545 101.11028546245083 a86.0,86.0 0 0,1 10.666146001902534,-42.60595125391555" fill="none" id="id118" stroke="none" /><text fill="#e1ed5e" style="font-size:6.75px; font-family:Arial;" text-anchor="middle"><textPath startOffset="22.20632615414155" xlink:href="#id118">October</textPath></text><path d="M 79.01574976396665 99.18683210126434 l -5.682306542273358 -0.2201970153319011 a26.68657140691328,26.68657140691328 0 0,0 0.021738616447207978,-0.4588678351118268 l 5.677674317592651 0.31797595706673704" fill="#ff3805" stroke="none" /><path d="M 79.08570108090925 98.10471618934814 l -1.855931984839437 -0.1681872224426479 a22.86353708687083,22.86353708687083 0 0,0 0.03889291722923763,-0.39164636879972314 l 1.8527619419279706 0.2001091219468013" fill="#ff0000" stroke="none" /><path d="M 79.32604984820605 96.31383870115002 l -11.803051513662531 -2.104481793684707 a32.98919799878715,32.98919799878715 0 0,0 0.10448822017540804,-0.5581802502808048 l 11.765077569577262 2.3073401214280844" fill="#ff8f0d" stroke="none" /><path d="M 79.46518482838121 95.60439243477599 l -6.273629644584967 -1.342910257369382 a27.415749128259552,27.415749128259552 0 0,0 0.10275111147323913,-0.4606130852662688 l 6.24958414610969 1.45070151218561" fill="#ff4206" stroke="none" /><path d="M 80.52162464483688 92.15188598940014 l -7.6792446501883 -3.094076709739124 a29.279136976955733,29.279136976955733 0 0,0 0.1923755204527736,-0.46585258186579387 l 7.624847442849327 3.2258038620582297" fill="#ff5c08" stroke="none" /><line stroke="#e1ed5e" stroke-width="0.3" x1="26.266209847984243" x2="21.928928074336255" y1="57.711370442889674" y2="55.22380399835377" /><path d="M 25.398753493254645 57.213857153982495 a86.0,86.0 0 0,1 29.58750427330803,-30.492523968695096" fill="none" id="id119" stroke="none" /><text fill="#e1ed5e" style="font-size:6.75px; font-family:Arial;" text-anchor="middle"><textPath startOffset="21.46611528233685" xlink:href="#id119">November</textPath></text><line stroke="#e1ed5e" stroke-width="0.3" x1="56.762969772571076" x2="54.21961505331055" y1="26.818313649435495" y2="22.513508569990535" /><path d="M 56.25429882871897 25.957352633546506 a86.0,86.0 0 0,1 42.265352541879196,-11.944610805530505" fill="none" id="id120" stroke="none" /><text fill="#e1ed5e" style="font-size:6.75px; font-family:Arial;" text-anchor="middle"><textPath startOffset="22.20632615414155" xlink:href="#id120">December</textPath></text></svg>